<?xml version="1.0" encoding="UTF-8"?>
<!DOCTYPE svg PUBLIC "-//W3C//DTD SVG 1.1//EN" "http://www.w3.org/Graphics/SVG/1.1/DTD/svg11.dtd">
<!-- Creator: CorelDRAW 2018 (64 Bit) -->
<svg xmlns="http://www.w3.org/2000/svg" xml:space="preserve" width="42.5733mm" height="17.2542mm" version="1.1" style="shape-rendering:geometricPrecision; text-rendering:geometricPrecision; image-rendering:optimizeQuality; fill-rule:evenodd; clip-rule:evenodd"
viewBox="0 0 1624 658"
 xmlns:xlink="http://www.w3.org/1999/xlink">
 <defs>
  <style type="text/css">
   <![CDATA[
    .fil2 {fill:#97A3AB}
    .fil1 {fill:#BE2026}
    .fil0 {fill:white}
   ]]>
  </style>
 </defs>
 <g id="Ebene_x0020_1">
  <metadata id="CorelCorpID_0Corel-Layer"/>
  <g id="_2801100848400">
   <g>
    <circle class="fil0" cx="340" cy="343" r="280"/>
   </g>
   <g>
    <path class="fil1" d="M161 146l11 -9c13,-11 28,-20 43,-29 0,-16 4,-31 12,-45 17,-31 50,-50 85,-50 16,0 33,4 47,12 23,13 40,35 47,60 16,4 31,10 46,17l13 6 -38 68 -11 -5c-24,-11 -51,-17 -77,-17 -42,0 -84,14 -117,41l-10 8 -53 -57z"/>
    <g>
     <path class="fil0" d="M313 27c14,0 28,3 41,10 23,13 38,35 42,60 18,4 35,10 52,18l-24 44c-26,-12 -54,-18 -83,-18 -46,0 -90,16 -125,43l-35 -37c15,-12 31,-22 48,-31 -1,-16 2,-32 10,-47 15,-28 44,-43 74,-43l0 0zm0 -27c-40,0 -78,22 -97,57 -7,13 -12,28 -13,43 -13,8 -26,17 -38,26l-22 18 20 21 35 37 17 18 20 -15c31,-24 69,-38 108,-38 24,0 49,5 72,15l23 10 12 -22 24 -44 14 -25 -26 -12c-13,-6 -27,-11 -41,-16 -9,-26 -27,-48 -51,-61 -17,-9 -35,-14 -54,-14l0 0z"/>
    </g>
   </g>
   <g id="_2801100821232">
    <path class="fil1" d="M93 439c-6,-16 -11,-33 -14,-50 -15,-5 -28,-14 -39,-25 -37,-39 -35,-101 5,-138 18,-17 42,-26 66,-26 2,0 4,0 6,0 9,-14 19,-27 30,-39l10 -10 53 57 -8 9c-18,20 -31,43 -40,68 -13,40 -12,84 2,124l4 12 -70 33 -5 -13z"/>
    <g>
     <path class="fil0" d="M156 170l35 37c-19,21 -34,46 -43,73 -14,44 -13,90 3,132l-46 21c-7,-18 -12,-36 -15,-55 -15,-4 -30,-12 -41,-24 -32,-34 -30,-87 4,-119 16,-15 37,-23 57,-23 4,0 8,0 13,1 9,-16 20,-30 33,-44l0 0zm0 -39l-20 21c-10,11 -19,22 -28,34 -28,0 -54,11 -74,30 -45,42 -47,112 -6,157 10,11 23,20 37,26 3,15 8,30 13,45l10 27 26 -12 46 -21 22 -10 -9 -23c-14,-37 -14,-78 -2,-115 8,-23 20,-45 37,-63l17 -18 -17 -18 -35 -37 -20 -21 0 0z"/>
    </g>
   </g>
   <g>
    <path class="fil1" d="M226 645c-38,0 -73,-22 -88,-56 -11,-24 -12,-52 -3,-76 -10,-13 -20,-26 -27,-41l-7 -13 70 -33 6 11c13,23 31,43 52,59 32,24 71,36 111,36 2,0 5,0 7,0l12 -1 9 77 -14 1c-5,0 -10,0 -15,0 -12,0 -25,-1 -37,-3 -10,13 -22,22 -36,29 -13,6 -27,9 -41,9z"/>
    <g>
     <path class="fil0" d="M165 444c14,25 33,46 56,63 35,26 77,39 119,39 3,0 5,0 8,0l6 50c-5,0 -9,0 -14,0 -15,0 -29,-1 -43,-4 -8,13 -20,24 -36,32 -11,5 -24,8 -36,8 -32,0 -62,-18 -76,-49 -11,-24 -10,-51 1,-73 -12,-14 -22,-29 -31,-45l46 -21 0 0zm11 -35l-22 10 -46 21 -26 12 14 25c7,13 15,25 24,37 -8,26 -6,54 6,80 18,39 58,64 101,64 16,0 32,-3 47,-10 14,-6 26,-16 36,-27 10,1 21,2 31,2 5,0 10,0 15,0l29 -2 -3 -29 -6 -50 -3 -25 -25 1c-2,0 -4,0 -7,0 -37,0 -73,-12 -103,-34 -20,-14 -37,-33 -49,-54l-12 -21 0 0z"/>
    </g>
   </g>
   <g>
    <path class="fil1" d="M499 613c-23,0 -44,-8 -61,-22 -15,6 -31,10 -47,14l-14 3 -9 -77 12 -3c26,-5 51,-16 72,-32 34,-25 59,-61 71,-101l3 -12 76 15 -4 14c-4,17 -10,33 -18,48 9,13 15,28 17,44 7,53 -32,102 -85,109 -4,0 -8,1 -12,1l0 0z"/>
    <g>
     <path class="fil0" d="M535 398l50 10c-5,19 -12,36 -21,53 10,12 17,27 19,44 6,46 -27,88 -73,94 -3,0 -7,1 -10,1 -23,0 -43,-9 -59,-24 -17,7 -34,13 -52,16l-6 -50c28,-6 54,-17 77,-34 37,-27 64,-66 76,-109l0 0zm-19 -31l-7 24c-11,38 -34,71 -66,94 -20,14 -43,24 -67,29l-24 5 3 25 6 50 3 29 28 -5c15,-3 29,-7 42,-12 19,13 41,20 64,20 5,0 9,0 14,-1 61,-7 104,-63 97,-124 -2,-15 -7,-30 -15,-43 6,-14 12,-29 16,-44l7 -28 -28 -6 -50 -10 -24 -5 0 0z"/>
    </g>
   </g>
   <g>
    <path class="fil1" d="M526 376l1 -12c3,-26 0,-54 -8,-78 -13,-40 -40,-75 -75,-99l-10 -7 38 -68 12 8c15,9 28,20 41,32 9,-3 18,-4 28,-4 6,0 13,1 19,2 53,10 87,62 77,114 -5,26 -21,49 -43,63 1,16 0,33 -2,49l-2 14 -76 -15z"/>
    <g>
     <path class="fil0" d="M477 131c16,10 31,23 44,36 10,-4 20,-6 31,-6 5,0 11,1 16,2 46,9 75,53 66,99 -5,26 -22,47 -44,59 2,18 1,36 -1,55l-50 -10c3,-28 0,-57 -9,-84 -14,-44 -43,-81 -80,-106l25 -44 0 0zm-10 -38l-14 25 -24 44 -12 22 21 14c33,22 57,54 69,92 8,23 10,48 7,73l-3 25 24 5 50 10 28 6 4 -29c2,-15 3,-29 2,-44 22,-16 37,-40 42,-68 12,-60 -28,-118 -88,-130 -7,-1 -14,-2 -21,-2 -8,0 -16,1 -24,3 -11,-10 -24,-20 -37,-29l-24 -16 0 0z"/>
    </g>
   </g>
   <g>
    <path class="fil2" d="M269 274c-1,-11 -2,-22 -2,-32 -22,16 -39,40 -47,67 10,-3 21,-6 31,-9 1,-11 8,-21 18,-26z"/>
    <path class="fil2" d="M310 394c-6,-9 -11,-19 -16,-29 -5,-10 -9,-20 -12,-30 -12,0 -24,-7 -29,-18 -13,3 -26,7 -38,12 0,1 0,3 0,4 -4,48 19,92 57,117 12,-6 23,-14 34,-22 -5,-11 -3,-24 5,-33z"/>
    <path class="fil2" d="M348 444c0,0 0,0 0,0 -11,5 -23,3 -32,-3 -9,6 -18,13 -27,18 13,6 26,9 41,10 14,1 29,0 42,-3 -8,-7 -16,-14 -23,-22z"/>
    <path class="fil2" d="M311 289c0,1 1,2 1,3 2,0 4,0 6,0 9,0 18,0 27,1 11,1 22,3 32,5 3,-6 8,-10 14,-13 5,-2 11,-3 16,-3 4,-13 7,-26 9,-39 -18,-14 -40,-23 -65,-25 -24,-2 -48,3 -68,13 0,13 0,27 2,40 11,1 21,8 26,18z"/>
    <path class="fil2" d="M433 300c2,5 3,11 3,16 10,4 20,9 30,14 -3,-29 -16,-55 -35,-75 -2,11 -5,21 -8,32 4,3 8,7 10,13z"/>
    <path class="fil2" d="M299 330c3,9 7,19 11,28 4,9 9,18 14,27 8,-3 17,-2 25,2 7,-8 13,-15 19,-24 6,-8 11,-17 16,-25 -3,-3 -6,-6 -8,-11 -2,-4 -3,-9 -3,-13 -10,-2 -19,-3 -29,-4 -8,-1 -17,-1 -25,-1 -2,0 -3,0 -5,0 -2,8 -7,16 -15,21z"/>
    <path class="fil2" d="M431 332c-3,4 -7,8 -13,11 -6,3 -13,4 -19,2 -5,9 -11,18 -17,27 -6,9 -13,17 -20,25 1,1 1,2 2,3 5,11 3,22 -3,31 9,10 19,19 29,27 41,-18 72,-57 76,-105 0,-1 0,-3 0,-4 -11,-7 -23,-13 -36,-18z"/>
   </g>
   <g>
    <path class="fil1" d="M917 245c0,9 -1,18 -3,26 -2,8 -5,16 -8,24 -4,8 -8,14 -14,21 -6,6 -12,12 -20,16 -8,5 -16,8 -26,10 -10,3 -20,4 -32,4l-69 0 36 -170 60 0c13,0 23,2 33,5 9,3 17,8 24,14 6,6 11,13 14,22 3,8 5,17 5,28zm-41 3c0,-6 -1,-12 -3,-17 -2,-5 -4,-9 -8,-13 -4,-3 -8,-6 -14,-8 -6,-2 -12,-3 -20,-3l-19 0 -23 108 23 0c10,0 18,-2 26,-5 8,-3 14,-8 20,-14 6,-6 10,-13 13,-21 3,-8 5,-17 5,-28z"/>
    <path class="fil1" d="M986 345c-1,0 -3,1 -5,1 -2,0 -4,1 -6,1 -2,0 -4,1 -6,1 -2,0 -4,0 -7,0 -5,0 -10,-1 -14,-2 -4,-1 -7,-3 -9,-6 -2,-2 -4,-5 -5,-9 -1,-3 -2,-7 -2,-11 0,-2 0,-4 0,-6 0,-2 0,-4 1,-7 0,-2 1,-5 1,-7 0,-2 1,-5 1,-7 0,-1 1,-4 2,-7 1,-4 2,-8 3,-12 1,-5 2,-10 3,-15 1,-5 2,-10 3,-15 1,-5 2,-9 3,-12 1,-4 1,-6 2,-7l38 0 -14 68c-1,3 -1,6 -2,9 -1,3 -1,6 -1,9 0,3 1,5 3,6 2,1 4,2 6,2 2,0 4,0 6,-1 2,0 4,-1 6,-2 -1,5 -2,9 -3,14 -1,5 -2,9 -3,14zm12 -159c0,3 -1,6 -2,8 -1,3 -3,5 -5,6 -2,2 -4,3 -7,4 -3,1 -6,1 -9,1 -3,0 -6,0 -8,-1 -3,-1 -5,-2 -7,-4 -2,-2 -3,-3 -4,-6 -1,-2 -2,-5 -2,-7 0,-3 1,-6 2,-8 1,-3 3,-5 5,-6 2,-2 4,-3 7,-4 3,-1 6,-1 9,-1 3,0 6,0 8,1 3,1 5,2 7,4 2,2 3,3 4,6 1,2 1,5 1,7z"/>
    <path class="fil1" d="M1118 331c-2,11 -5,20 -9,29 -4,9 -9,16 -15,22 -6,6 -14,11 -24,15 -10,3 -21,5 -35,5 -8,0 -15,-1 -21,-2 -6,-2 -13,-4 -18,-6l7 -30c5,3 10,6 16,8 6,2 12,3 19,3 6,0 12,-1 16,-2 5,-2 9,-4 12,-7 3,-3 6,-7 8,-12 2,-5 4,-10 5,-17l2 -11 -1 0c-2,3 -4,6 -7,9 -2,3 -5,5 -8,7 -3,2 -6,4 -10,5 -4,1 -8,2 -12,2 -6,0 -12,-1 -16,-3 -5,-2 -8,-5 -12,-9 -3,-4 -6,-9 -7,-14 -1,-6 -2,-12 -2,-19 0,-7 1,-13 2,-20 1,-7 4,-13 7,-19 3,-6 7,-12 11,-17 4,-5 10,-10 15,-13 6,-4 13,-7 20,-9 7,-2 15,-3 24,-3 5,0 10,0 15,1 5,0 10,1 14,1 5,1 9,1 13,2 4,1 8,1 12,2l-22 103zm-26 -83c-2,0 -5,0 -8,0 -5,0 -10,1 -15,4 -5,3 -9,6 -13,11 -4,5 -6,10 -8,16 -2,6 -3,13 -3,20 0,3 0,6 1,8 1,2 1,5 3,6 1,2 3,3 5,4 2,1 4,1 6,1 3,0 6,-1 9,-2 3,-1 5,-3 7,-5 2,-2 4,-5 6,-8 2,-3 3,-6 5,-9 1,-3 3,-6 3,-10 1,-3 2,-6 2,-9l6 -29c-2,0 -4,-1 -7,-1z"/>
    <path class="fil1" d="M1206 345c-1,0 -3,1 -5,1 -2,0 -4,1 -6,1 -2,0 -4,1 -6,1 -2,0 -4,0 -7,0 -5,0 -10,-1 -14,-2 -4,-1 -7,-3 -9,-6 -2,-2 -4,-5 -5,-9 -1,-3 -2,-7 -2,-11 0,-2 0,-4 0,-6 0,-2 0,-4 1,-7 0,-2 1,-5 1,-7 0,-2 1,-5 1,-7 0,-1 1,-4 2,-7 1,-4 2,-8 3,-12 1,-5 2,-10 3,-15 1,-5 2,-10 3,-15 1,-5 2,-9 3,-12 1,-4 1,-6 2,-7l38 0 -14 68c-1,3 -1,6 -2,9 -1,3 -1,6 -1,9 0,3 1,5 3,6 2,1 4,2 6,2 2,0 4,0 6,-1 2,0 4,-1 6,-2 -1,5 -2,9 -3,14 -1,5 -2,9 -3,14zm12 -159c0,3 -1,6 -2,8 -1,3 -3,5 -5,6 -2,2 -4,3 -7,4 -3,1 -6,1 -9,1 -3,0 -6,0 -8,-1 -3,-1 -5,-2 -7,-4 -2,-2 -3,-3 -4,-6 -1,-2 -2,-5 -2,-7 0,-3 1,-6 2,-8 1,-3 3,-5 5,-6 2,-2 4,-3 7,-4 3,-1 6,-1 9,-1 3,0 6,0 8,1 3,1 5,2 7,4 2,2 3,3 4,6 1,2 1,5 1,7z"/>
    <path class="fil2" d="M1312 252l-28 0 -10 45c0,1 0,2 -1,3 0,1 0,2 -1,3 0,1 0,2 -1,3 0,1 0,2 0,3 0,3 1,6 2,7 2,1 4,2 8,2 1,0 2,0 4,0 1,0 3,-1 4,-1 1,0 3,-1 4,-1 1,0 3,-1 3,-1l-6 28c-1,1 -3,1 -5,2 -2,1 -4,1 -7,1 -2,0 -5,1 -8,1 -3,0 -5,1 -8,1 -6,0 -11,-1 -15,-2 -4,-1 -7,-4 -10,-6 -2,-3 -4,-6 -5,-10 -1,-4 -1,-8 -1,-12 0,-1 0,-3 0,-4 0,-2 0,-3 1,-5 0,-2 1,-3 1,-5 0,-2 1,-3 1,-5l10 -47 -19 0 7 -28 18 0 6 -28 39 -10 -8 38 29 0 -6 27z"/>
    <path class="fil2" d="M1433 306c-1,2 -1,5 -2,9 -1,3 -1,7 -1,11 -1,4 -1,7 -1,11 0,4 0,7 0,9l-38 0c0,-1 0,-3 0,-5 0,-2 0,-4 0,-6 0,-2 0,-4 1,-6 0,-2 0,-3 1,-5l-1 0c-2,3 -5,6 -7,9 -2,3 -5,5 -8,8 -3,2 -6,4 -10,5 -4,1 -8,2 -13,2 -6,0 -11,-1 -16,-3 -5,-2 -8,-5 -12,-9 -3,-4 -6,-9 -7,-15 -2,-6 -2,-12 -2,-20 0,-4 0,-8 1,-14 1,-6 2,-11 4,-17 2,-6 5,-12 9,-18 4,-6 9,-11 15,-16 6,-5 13,-9 22,-11 9,-3 19,-4 30,-4 4,0 9,0 14,1 5,0 9,1 13,1 4,1 9,1 13,2 4,1 8,2 11,2l-16 78zm-31 -58c-2,0 -4,0 -6,0 -5,0 -10,1 -14,3 -4,2 -8,4 -11,7 -3,3 -6,6 -8,10 -2,4 -4,8 -5,11 -1,4 -2,8 -3,11 0,4 -1,7 -1,10 0,3 0,6 1,8 1,2 1,5 3,6 1,2 3,3 5,4 2,1 4,1 6,1 4,0 8,-1 12,-4 4,-3 7,-6 9,-10 3,-4 5,-9 7,-14 2,-5 3,-10 4,-15l6 -28c-2,0 -4,-1 -6,-1z"/>
    <path class="fil2" d="M1516 345c-1,0 -3,1 -5,1 -2,0 -4,1 -6,1 -2,0 -4,1 -6,1 -2,0 -4,0 -7,0 -5,0 -10,-1 -14,-2 -4,-1 -7,-3 -9,-6 -2,-2 -4,-5 -5,-9 -1,-3 -2,-7 -2,-11 0,-2 0,-4 0,-6 0,-2 0,-4 1,-7 0,-2 1,-5 1,-7 0,-2 1,-5 1,-7 0,-1 1,-3 2,-8 1,-4 2,-9 3,-15 1,-6 3,-12 4,-20 1,-7 3,-14 5,-22 2,-8 3,-15 5,-22 1,-7 3,-14 4,-20 1,-6 2,-11 3,-15 1,-4 1,-6 2,-8l38 0 -27 126c-1,3 -1,6 -2,9 -1,3 -1,6 -1,9 0,3 1,5 3,6 2,1 4,2 6,2 2,0 4,0 6,-1 2,0 4,-1 6,-2 -1,5 -2,9 -3,14 -1,5 -2,10 -3,14z"/>
    <path class="fil1" d="M933 444c-2,-1 -5,-3 -8,-4 -3,-1 -6,-3 -9,-4 -3,-1 -7,-2 -11,-3 -4,-1 -8,-1 -12,-1 -4,0 -8,1 -11,2 -3,1 -6,3 -7,5 -2,2 -3,4 -4,6 -1,2 -1,4 -1,6 0,3 0,5 1,7 1,2 2,4 4,6 2,2 4,4 7,6 3,2 6,4 10,7 5,3 10,7 14,10 4,3 8,7 11,11 3,4 5,8 7,13 1,5 2,10 2,15 0,3 0,7 -1,11 -1,4 -2,8 -4,12 -2,4 -4,8 -8,11 -3,4 -7,7 -12,10 -5,3 -11,5 -17,7 -7,2 -15,3 -24,3 -5,0 -10,0 -15,-1 -5,-1 -9,-2 -14,-3 -4,-1 -8,-2 -12,-4 -4,-1 -7,-3 -10,-4l6 -34c3,2 6,4 10,6 4,2 7,3 11,5 4,1 8,3 12,3 4,1 8,1 12,1 4,0 8,-1 11,-1 3,-1 6,-2 8,-4 2,-2 3,-4 4,-6 1,-2 1,-5 1,-7 0,-3 0,-5 -1,-7 -1,-2 -2,-4 -4,-6 -2,-2 -4,-4 -8,-6 -3,-2 -7,-4 -11,-7 -5,-3 -9,-6 -13,-9 -4,-3 -7,-7 -10,-10 -3,-4 -5,-8 -7,-13 -1,-5 -2,-10 -2,-16 0,-7 1,-13 4,-19 2,-6 6,-12 11,-17 5,-5 12,-9 20,-12 8,-3 18,-5 29,-5 5,0 9,0 13,1 4,1 8,1 12,2 4,1 8,2 11,3 3,1 7,2 9,3l-7 32z"/>
    <path class="fil1" d="M1069 501c0,6 -1,11 -2,17 -1,6 -3,12 -5,17 -2,6 -5,11 -9,16 -4,5 -8,9 -14,13 -5,4 -11,7 -18,9 -7,2 -15,3 -24,3 -9,0 -17,-1 -23,-4 -7,-3 -12,-6 -17,-11 -4,-5 -8,-10 -10,-16 -2,-6 -3,-13 -3,-20 0,-6 1,-12 2,-18 1,-6 3,-12 6,-17 3,-6 6,-11 10,-16 4,-5 8,-9 14,-13 5,-4 11,-7 18,-9 7,-2 15,-3 23,-3 8,0 16,1 22,4 7,2 12,6 16,10 4,4 8,10 10,16 2,6 3,13 3,21zm-38 1c0,-3 0,-6 -1,-9 -1,-3 -2,-5 -3,-7 -1,-2 -3,-4 -6,-5 -2,-1 -5,-2 -8,-2 -5,0 -9,1 -13,4 -4,3 -7,6 -10,11 -3,5 -5,10 -6,15 -1,6 -2,11 -2,17 0,7 2,13 5,17 3,4 8,6 13,6 5,0 10,-1 14,-4 4,-3 7,-6 10,-11 3,-4 5,-9 6,-15 1,-6 2,-11 2,-17z"/>
    <path class="fil1" d="M1183 487c-3,-2 -6,-4 -10,-5 -4,-2 -9,-2 -14,-2 -6,0 -11,1 -16,4 -5,3 -9,6 -12,10 -3,4 -6,9 -7,14 -2,5 -3,10 -3,16 0,8 2,14 6,19 4,4 9,7 17,7 2,0 5,0 7,-1 3,0 5,-1 8,-2 3,-1 5,-2 7,-3 2,-1 4,-2 6,-3l-6 29c-5,3 -11,5 -17,6 -6,2 -12,2 -18,2 -8,0 -15,-1 -21,-4 -6,-2 -11,-6 -15,-10 -4,-4 -7,-10 -9,-16 -2,-6 -3,-13 -3,-20 0,-7 1,-13 2,-20 1,-6 4,-13 7,-18 3,-6 6,-11 11,-16 4,-5 9,-9 15,-12 6,-3 12,-6 18,-8 7,-2 14,-3 22,-3 4,0 7,0 10,1 3,0 6,1 9,2 3,1 5,1 7,2 2,1 4,2 5,2l-7 29z"/>
    <path class="fil1" d="M1251 574c-1,0 -3,1 -5,1 -2,0 -4,1 -6,1 -2,0 -4,1 -6,1 -2,0 -4,0 -7,0 -5,0 -10,-1 -14,-2 -4,-1 -7,-3 -9,-6 -2,-2 -4,-5 -5,-9 -1,-3 -2,-7 -2,-11 0,-2 0,-4 0,-6 0,-2 0,-4 1,-7 0,-2 1,-5 1,-7 0,-2 1,-5 1,-7 0,-1 1,-4 2,-7 1,-4 2,-8 3,-12 1,-5 2,-10 3,-15 1,-5 2,-10 3,-15 1,-5 2,-9 3,-12 1,-4 1,-6 2,-7l38 0 -14 68c-1,3 -1,6 -2,9 -1,3 -1,6 -1,9 0,3 1,5 3,6 2,1 4,2 6,2 2,0 4,0 6,-1 2,0 4,-1 6,-2 -1,5 -2,9 -3,14 -1,5 -2,9 -3,14zm12 -159c0,3 -1,6 -2,8 -1,3 -3,5 -5,6 -2,2 -4,3 -7,4 -3,1 -6,1 -9,1 -3,0 -6,0 -8,-1 -3,-1 -5,-2 -7,-4 -2,-2 -3,-3 -4,-6 -1,-2 -2,-5 -2,-7 0,-3 1,-6 2,-8 1,-3 3,-5 5,-6 2,-2 4,-3 7,-4 3,-1 6,-1 9,-1 3,0 6,0 8,1 3,1 5,2 7,4 2,2 3,3 4,6 1,2 1,5 1,7z"/>
    <path class="fil1" d="M1389 485c0,6 -1,12 -4,17 -3,5 -7,10 -13,13 -6,4 -14,7 -25,9 -10,2 -23,3 -38,4 0,1 0,1 0,1 0,0 0,1 0,1 0,2 0,5 1,7 1,2 2,5 4,7 2,2 4,4 8,5 3,1 7,2 12,2 3,0 6,0 9,-1 3,-1 7,-1 10,-2 3,-1 7,-2 10,-3 3,-1 7,-3 10,-5l-6 28c-2,1 -5,2 -8,4 -3,1 -7,2 -10,3 -4,1 -8,2 -12,2 -4,1 -8,1 -13,1 -9,0 -17,-1 -24,-4 -7,-3 -12,-6 -16,-11 -4,-4 -7,-10 -9,-16 -2,-6 -3,-13 -3,-19 0,-10 2,-20 5,-29 3,-9 8,-17 15,-24 6,-7 14,-13 23,-17 9,-4 19,-6 30,-6 8,0 15,1 20,3 6,2 10,4 14,8 3,3 6,7 8,11 2,4 2,8 2,13zm-36 0c0,-3 -1,-5 -3,-7 -2,-2 -5,-3 -9,-3 -3,0 -7,1 -10,2 -3,1 -6,4 -9,6 -3,3 -5,6 -7,9 -2,4 -3,8 -4,12 14,0 25,-1 32,-5 7,-3 11,-8 11,-15z"/>
    <path class="fil1" d="M1483 481l-28 0 -10 45c0,1 0,2 -1,3 0,1 0,2 -1,3 0,1 0,2 -1,3 0,1 0,2 0,3 0,3 1,6 2,7 2,1 4,2 8,2 1,0 2,0 4,0 1,0 3,-1 4,-1 1,0 3,-1 4,-1 1,0 3,-1 3,-1l-6 28c-1,1 -3,1 -5,2 -2,1 -4,1 -7,1 -2,0 -5,1 -8,1 -3,0 -5,1 -8,1 -6,0 -11,-1 -15,-2 -4,-1 -7,-4 -10,-6 -2,-3 -4,-6 -5,-10 -1,-4 -1,-8 -1,-12 0,-1 0,-3 0,-4 0,-2 0,-3 1,-5 0,-2 1,-3 1,-5 0,-2 1,-3 1,-5l10 -47 -19 0 7 -28 18 0 6 -28 39 -10 -8 38 29 0 -6 27z"/>
    <path class="fil1" d="M1547 585c-4,7 -8,13 -13,19 -4,6 -9,11 -14,15 -5,4 -11,7 -17,9 -6,2 -13,3 -21,3 -3,0 -6,0 -10,-1 -4,-1 -7,-1 -10,-3l6 -29c2,1 4,2 6,3 2,1 5,1 7,1 5,0 9,-1 13,-3 4,-2 8,-6 10,-11l10 -15 -24 -120 39 0 8 74c0,3 0,6 1,9 0,3 0,6 0,8l1 0c1,-2 2,-4 3,-7 1,-3 2,-6 4,-9l37 -74 39 0 -77 132z"/>
   </g>
   <g>
   </g>
   <g>
   </g>
   <g>
   </g>
   <g>
   </g>
   <g>
   </g>
   <g>
   </g>
   <g>
   </g>
   <g>
   </g>
   <g>
   </g>
   <g>
   </g>
   <g>
   </g>
   <g>
   </g>
   <g>
   </g>
   <g>
   </g>
   <g>
   </g>
   <g>
   </g>
   <g>
   </g>
   <g>
   </g>
  </g>
 </g>
</svg>
