<?xml version="1.0" encoding="UTF-8" standalone="no"?>
<svg
   xmlns:dc="http://purl.org/dc/elements/1.1/"
   xmlns:cc="http://creativecommons.org/ns#"
   xmlns:rdf="http://www.w3.org/1999/02/22-rdf-syntax-ns#"
   xmlns:svg="http://www.w3.org/2000/svg"
   xmlns="http://www.w3.org/2000/svg"
   xmlns:xlink="http://www.w3.org/1999/xlink"
   xml:space="preserve"
   style="enable-background:new 0 0 283.46 141.73;"
   viewBox="0 0 283.46 141.73"
   y="0px"
   x="0px"
   id="Ebene_1"
   version="1.1"><metadata
   id="metadata21"><rdf:RDF><cc:Work
       rdf:about=""><dc:format>image/svg+xml</dc:format><dc:type
         rdf:resource="http://purl.org/dc/dcmitype/StillImage" /><dc:title></dc:title></cc:Work></rdf:RDF></metadata><defs
   id="defs19" />
<style
   id="style2"
   type="text/css">
	.st0{clip-path:url(#SVGID_2_);fill:#239ED9;}
	.st1{clip-path:url(#SVGID_2_);fill:#00466E;}
</style>
<g
   id="g14">
	<defs
   id="defs5">
		<rect
   height="108.84"
   width="255.12"
   y="16.889999"
   x="14"
   id="SVGID_1_" />
	</defs>
	<clipPath
   id="SVGID_2_">
		<use
   height="100%"
   width="100%"
   y="0"
   x="0"
   id="use7"
   style="overflow:visible"
   xlink:href="#SVGID_1_" />
	</clipPath>
	<path
   style="fill:#ffffff"
   id="path10"
   clip-path="url(#SVGID_2_)"
   d="m 71.31,33.72 c -5.02,-5.02 -11.44,-7.79 -18,-8.33 v -8.23 c 8.67,0.55 17.19,4.11 23.82,10.74 6.67,6.67 10.22,15.25 10.74,23.97 H 79.64 C 79.14,45.25 76.37,38.78 71.31,33.72 M 59.67,45.36 c -1.81,-1.8 -4.03,-2.93 -6.36,-3.39 v -8.31 c 4.45,0.51 8.77,2.46 12.18,5.88 3.45,3.45 5.41,7.83 5.9,12.33 H 63.08 C 62.64,49.49 61.51,47.2 59.67,45.36 M 48.03,57 c -1.61,-1.61 -1.61,-4.21 0,-5.82 1.61,-1.61 4.21,-1.61 5.82,0 1.61,1.61 1.61,4.21 0,5.82 -1.61,1.61 -4.22,1.61 -5.82,0 M 36.38,68.64 C 32.94,65.2 30.99,60.85 30.49,56.37 h 8.31 c 0.44,2.36 1.57,4.62 3.4,6.45 1.87,1.87 4.19,2.99 6.6,3.41 v 8.32 C 44.27,74.09 39.86,72.12 36.38,68.64 M 14,56.37 h 8.23 c 0.52,6.6 3.28,13.05 8.33,18.09 5.08,5.08 11.6,7.85 18.24,8.34 v 8.23 C 40.04,90.53 31.43,86.97 24.73,80.28 18.09,73.63 14.53,65.08 14,56.37"
   class="st0" />
	<path
   style="fill:#ffffff"
   id="path12"
   clip-path="url(#SVGID_2_)"
   d="m 239.14,108.72 -1.66,0.73 v 0.85 h 1.66 v 6.9 c 0,2.36 1.12,3.54 3.36,3.54 0.3,0 0.63,-0.03 1,-0.09 0.37,-0.06 0.65,-0.14 0.84,-0.23 v -1.34 c -0.17,0.05 -0.4,0.1 -0.69,0.14 -0.29,0.05 -0.59,0.07 -0.9,0.07 -0.58,0 -1.03,-0.19 -1.36,-0.56 -0.33,-0.37 -0.5,-0.91 -0.5,-1.61 v -6.82 h 3.36 v -1.36 h -3.36 v -2.69 h -1.02 z m -25.05,13.75 c 0,-0.71 0.22,-1.26 0.67,-1.64 0.44,-0.38 1.07,-0.57 1.86,-0.57 h 2.11 c 1.07,0 1.8,0.12 2.19,0.36 0.39,0.24 0.58,0.68 0.58,1.31 0,0.75 -0.35,1.35 -1.06,1.79 -0.71,0.44 -1.8,0.66 -3.27,0.66 -0.99,0 -1.74,-0.16 -2.27,-0.49 -0.55,-0.31 -0.81,-0.79 -0.81,-1.42 m 0.95,-9.82 c 0,-0.87 0.22,-1.53 0.67,-1.98 0.45,-0.45 1.08,-0.67 1.9,-0.67 1.74,0 2.6,0.87 2.6,2.61 0,1.67 -0.86,2.5 -2.57,2.5 -0.82,0 -1.46,-0.21 -1.91,-0.62 -0.46,-0.42 -0.69,-1.03 -0.69,-1.84 m -1.97,8.01 c -0.45,0.51 -0.68,1.12 -0.68,1.83 0,1.03 0.41,1.83 1.23,2.39 0.82,0.56 1.99,0.85 3.51,0.85 1.97,0 3.48,-0.34 4.51,-1.01 1.03,-0.67 1.54,-1.65 1.54,-2.94 0,-1.01 -0.34,-1.78 -1.01,-2.31 -0.67,-0.53 -1.64,-0.79 -2.89,-0.79 h -2.05 c -0.63,0 -1.08,-0.08 -1.34,-0.23 -0.26,-0.15 -0.39,-0.39 -0.39,-0.7 0,-0.6 0.37,-1.1 1.12,-1.49 0.3,0.06 0.63,0.08 0.97,0.08 1.35,0 2.42,-0.34 3.19,-1.01 0.78,-0.68 1.16,-1.58 1.16,-2.72 0,-0.5 -0.08,-0.95 -0.23,-1.35 -0.15,-0.4 -0.33,-0.72 -0.53,-0.97 l 2.15,-0.25 v -1.11 h -4.01 c -0.49,-0.14 -1.03,-0.21 -1.64,-0.21 -1.4,0 -2.48,0.34 -3.24,1.03 -0.76,0.69 -1.14,1.67 -1.14,2.94 0,0.76 0.19,1.44 0.57,2.03 0.38,0.59 0.87,1.01 1.46,1.26 -0.49,0.3 -0.84,0.6 -1.07,0.92 -0.22,0.32 -0.34,0.69 -0.34,1.11 0,0.37 0.1,0.7 0.3,0.98 0.2,0.28 0.45,0.49 0.75,0.62 -0.81,0.19 -1.44,0.54 -1.9,1.05 m -2.95,-11.73 h -1.76 v 11.59 h 1.76 z m -1.6,-4.02 c -0.2,0.19 -0.3,0.48 -0.3,0.88 0,0.39 0.1,0.69 0.3,0.88 0.2,0.19 0.45,0.29 0.74,0.29 0.28,0 0.53,-0.1 0.73,-0.29 0.2,-0.19 0.31,-0.49 0.31,-0.88 0,-0.4 -0.1,-0.69 -0.31,-0.88 -0.21,-0.19 -0.45,-0.28 -0.73,-0.28 -0.3,0 -0.55,0.09 -0.74,0.28 M 203.65,81.2 c 0.31,7.03 3.5,10.55 9.59,10.55 2.59,0 4.68,-0.79 6.27,-2.36 1.59,-1.57 2.39,-3.61 2.39,-6.13 0,-1.1 -0.13,-2.14 -0.4,-3.13 -0.26,-0.99 -0.65,-1.89 -1.16,-2.71 -0.51,-0.82 -1.04,-1.55 -1.6,-2.19 -0.56,-0.64 -1.21,-1.3 -1.96,-1.98 l -4.5,-3.92 c -0.93,-0.82 -1.62,-1.59 -2.05,-2.31 -0.44,-0.72 -0.66,-1.63 -0.66,-2.74 0,-0.95 0.25,-1.7 0.74,-2.26 0.49,-0.56 1.21,-0.87 2.14,-0.93 0.54,-0.04 1.02,0.03 1.43,0.23 0.41,0.19 0.74,0.46 0.98,0.78 0.24,0.33 0.44,0.75 0.6,1.28 0.15,0.53 0.26,1.05 0.32,1.56 0.06,0.51 0.11,1.12 0.14,1.81 l 5.38,-1.06 c -0.08,-1.08 -0.23,-2.07 -0.44,-2.95 -0.21,-0.88 -0.52,-1.73 -0.95,-2.56 -0.43,-0.82 -0.95,-1.5 -1.58,-2.05 -0.63,-0.55 -1.44,-0.99 -2.41,-1.31 -0.97,-0.33 -2.09,-0.48 -3.36,-0.47 -2.75,0.03 -4.92,0.79 -6.49,2.27 -1.58,1.49 -2.37,3.57 -2.37,6.26 0,1.89 0.33,3.46 0.98,4.72 0.65,1.26 1.65,2.47 2.98,3.64 l 4.55,3.94 c 0.85,0.75 1.5,1.38 1.96,1.89 0.46,0.51 0.86,1.16 1.21,1.96 0.35,0.8 0.52,1.68 0.52,2.64 0,0.99 -0.23,1.77 -0.7,2.36 -0.47,0.58 -1.18,0.88 -2.14,0.88 -2.48,0 -3.78,-2.29 -3.92,-6.86 z m -2.68,27.73 h -1.45 v 11.59 h 1.76 v -6.22 c 0,-1.14 0.33,-2.08 1,-2.85 0.67,-0.76 1.47,-1.14 2.41,-1.14 0.37,0 0.79,0.05 1.27,0.16 l 0.24,-1.63 c -0.41,-0.08 -0.87,-0.13 -1.39,-0.13 -0.73,0 -1.39,0.2 -2,0.61 -0.61,0.41 -1.13,0.99 -1.55,1.75 h -0.08 z m -10.8,-4.86 h -1.76 v 16.46 h 1.76 z m -12.83,13.27 c 0,-0.81 0.31,-1.41 0.93,-1.79 0.62,-0.38 1.62,-0.6 3.02,-0.65 l 1.76,-0.07 v 1.05 c 0,1.08 -0.31,1.92 -0.94,2.52 -0.62,0.6 -1.48,0.9 -2.58,0.9 -0.69,0 -1.23,-0.17 -1.61,-0.5 -0.38,-0.34 -0.58,-0.82 -0.58,-1.46 m -1.84,-0.02 c 0,1.09 0.32,1.94 0.98,2.53 0.65,0.59 1.55,0.89 2.7,0.89 0.86,0 1.58,-0.13 2.15,-0.39 0.57,-0.26 1.15,-0.75 1.73,-1.48 h 0.08 l 0.35,1.65 h 1.3 v -7.91 c 0,-1.35 -0.33,-2.34 -1,-2.95 -0.67,-0.61 -1.69,-0.92 -3.07,-0.92 -0.68,0 -1.37,0.09 -2.05,0.26 -0.68,0.18 -1.31,0.42 -1.88,0.73 l 0.54,1.34 c 1.22,-0.59 2.31,-0.89 3.28,-0.89 0.86,0 1.49,0.22 1.88,0.65 0.39,0.43 0.59,1.11 0.59,2.01 v 0.72 l -1.97,0.06 c -3.73,0.13 -5.61,1.36 -5.61,3.7 m -6.65,-8.6 -1.66,0.73 v 0.85 h 1.66 v 6.9 c 0,2.36 1.12,3.54 3.36,3.54 0.3,0 0.63,-0.03 1,-0.09 0.37,-0.06 0.65,-0.14 0.84,-0.23 v -1.34 c -0.17,0.05 -0.4,0.1 -0.69,0.14 -0.29,0.05 -0.59,0.07 -0.9,0.07 -0.58,0 -1.03,-0.19 -1.37,-0.56 -0.33,-0.37 -0.5,-0.91 -0.5,-1.61 v -6.82 h 3.36 v -1.36 h -3.36 v -2.69 h -1.01 z m -3.85,0.21 h -1.76 v 11.59 H 165 Z m -1.61,-4.02 c -0.2,0.19 -0.3,0.48 -0.3,0.88 0,0.39 0.1,0.69 0.3,0.88 0.2,0.19 0.45,0.29 0.74,0.29 0.28,0 0.53,-0.1 0.73,-0.29 0.2,-0.19 0.31,-0.49 0.31,-0.88 0,-0.4 -0.1,-0.69 -0.31,-0.88 -0.21,-0.19 -0.45,-0.28 -0.73,-0.28 -0.29,0 -0.54,0.09 -0.74,0.28 m -11.77,17.56 c 0,-0.71 0.22,-1.26 0.67,-1.64 0.44,-0.38 1.07,-0.57 1.86,-0.57 h 2.1 c 1.07,0 1.8,0.12 2.19,0.36 0.39,0.24 0.58,0.68 0.58,1.31 0,0.75 -0.35,1.35 -1.06,1.79 -0.71,0.44 -1.8,0.66 -3.27,0.66 -0.99,0 -1.74,-0.16 -2.27,-0.49 -0.54,-0.31 -0.8,-0.79 -0.8,-1.42 m 0.95,-9.82 c 0,-0.87 0.22,-1.53 0.67,-1.98 0.45,-0.45 1.08,-0.67 1.9,-0.67 1.74,0 2.6,0.87 2.6,2.61 0,1.67 -0.86,2.5 -2.57,2.5 -0.82,0 -1.46,-0.21 -1.91,-0.62 -0.46,-0.42 -0.69,-1.03 -0.69,-1.84 m -1.97,8.01 c -0.45,0.51 -0.68,1.12 -0.68,1.83 0,1.03 0.41,1.83 1.23,2.39 0.82,0.56 1.99,0.85 3.51,0.85 1.97,0 3.48,-0.34 4.51,-1.01 1.03,-0.67 1.54,-1.65 1.54,-2.94 0,-1.01 -0.34,-1.78 -1.01,-2.31 -0.67,-0.53 -1.64,-0.79 -2.89,-0.79 h -2.05 c -0.63,0 -1.08,-0.08 -1.34,-0.23 -0.26,-0.15 -0.39,-0.39 -0.39,-0.7 0,-0.6 0.37,-1.1 1.12,-1.49 0.3,0.06 0.63,0.08 0.97,0.08 1.35,0 2.42,-0.34 3.19,-1.01 0.78,-0.68 1.16,-1.58 1.16,-2.72 0,-0.5 -0.08,-0.95 -0.23,-1.35 -0.15,-0.4 -0.33,-0.72 -0.53,-0.97 l 2.15,-0.25 v -1.11 h -4.01 c -0.49,-0.14 -1.03,-0.21 -1.64,-0.21 -1.4,0 -2.48,0.34 -3.24,1.03 -0.76,0.69 -1.14,1.67 -1.14,2.94 0,0.76 0.19,1.44 0.57,2.03 0.38,0.59 0.87,1.01 1.46,1.26 -0.49,0.3 -0.84,0.6 -1.07,0.92 -0.23,0.32 -0.34,0.69 -0.34,1.11 0,0.37 0.1,0.7 0.3,0.98 0.2,0.28 0.45,0.49 0.75,0.62 -0.81,0.19 -1.44,0.54 -1.9,1.05 m -2.95,-11.73 h -1.76 v 11.59 h 1.76 z m -1.6,-4.02 c -0.2,0.19 -0.3,0.48 -0.3,0.88 0,0.39 0.1,0.69 0.3,0.88 0.2,0.19 0.45,0.29 0.74,0.29 0.28,0 0.53,-0.1 0.73,-0.29 0.2,-0.19 0.31,-0.49 0.31,-0.88 0,-0.4 -0.1,-0.69 -0.31,-0.88 -0.21,-0.19 -0.45,-0.28 -0.73,-0.28 -0.3,0 -0.55,0.09 -0.74,0.28 m -12.25,9.87 c 0,-1.46 0.27,-2.59 0.82,-3.39 0.55,-0.8 1.33,-1.2 2.36,-1.2 1.2,0 2.07,0.35 2.62,1.05 0.55,0.7 0.82,1.87 0.82,3.52 v 0.37 c 0,1.45 -0.27,2.51 -0.81,3.16 -0.54,0.65 -1.41,0.98 -2.61,0.98 -1.05,0 -1.85,-0.38 -2.39,-1.13 -0.54,-0.76 -0.81,-1.88 -0.81,-3.36 m -0.55,-4.47 c -0.85,1.06 -1.27,2.54 -1.27,4.45 0,1.91 0.42,3.38 1.26,4.42 0.84,1.04 2.02,1.56 3.54,1.56 1.61,0 2.83,-0.59 3.64,-1.77 h 0.1 l 0.23,1.56 h 1.43 v -16.46 h -1.76 v 4.72 l 0.04,0.82 0.07,0.83 h -0.14 c -0.84,-1.14 -2.04,-1.71 -3.62,-1.71 -1.5,-0.01 -2.68,0.52 -3.52,1.58 m -13.65,-1.38 h -1.45 v 11.59 h 1.76 v -6.22 c 0,-1.14 0.33,-2.08 1,-2.85 0.67,-0.76 1.47,-1.14 2.41,-1.14 0.37,0 0.79,0.05 1.27,0.16 l 0.24,-1.63 c -0.41,-0.08 -0.87,-0.13 -1.39,-0.13 -0.73,0 -1.39,0.2 -2,0.61 -0.61,0.41 -1.12,0.99 -1.55,1.75 h -0.08 z m -13.36,5.79 c 0,-1.49 0.29,-2.62 0.88,-3.37 0.58,-0.75 1.45,-1.13 2.6,-1.13 1.16,0 2.04,0.38 2.64,1.15 0.6,0.76 0.89,1.88 0.89,3.36 0,1.49 -0.3,2.62 -0.89,3.39 -0.6,0.77 -1.47,1.16 -2.62,1.16 -1.15,0 -2.02,-0.39 -2.61,-1.16 -0.59,-0.79 -0.89,-1.92 -0.89,-3.4 m -0.4,-4.42 c -0.94,1.06 -1.42,2.53 -1.42,4.42 0,1.22 0.22,2.29 0.65,3.19 0.44,0.91 1.06,1.61 1.86,2.09 0.8,0.48 1.72,0.73 2.76,0.73 1.68,0 2.99,-0.53 3.94,-1.59 0.95,-1.06 1.43,-2.54 1.43,-4.43 0,-1.84 -0.48,-3.3 -1.43,-4.38 -0.96,-1.08 -2.24,-1.62 -3.87,-1.62 -1.66,0.01 -2.97,0.54 -3.92,1.59 m -7.59,-1.43 -2.07,0.64 v 0.79 h 2.07 v 10.23 H 100 V 110.3 h 2.95 v -1.36 H 100 v -0.75 c 0,-0.97 0.16,-1.68 0.48,-2.12 0.32,-0.44 0.81,-0.66 1.47,-0.66 0.48,0 1.06,0.11 1.74,0.33 l 0.45,-1.41 c -0.82,-0.25 -1.54,-0.37 -2.16,-0.37 -2.49,0 -3.73,1.42 -3.73,4.27 z M 97.11,85.75 c -1.34,1.34 -1.34,3.5 0,4.84 1.34,1.34 3.5,1.34 4.84,0 1.34,-1.34 1.34,-3.5 0,-4.84 -1.34,-1.34 -3.5,-1.34 -4.84,0 M 96.9,51.86 h 14.58 V 47.5 H 103.2 V 36.09 h 6.46 v -4.44 h -6.46 v -9.93 h 8.17 V 17.28 H 96.9 Z m 21.84,4.9 h -4.23 l -3.69,22.29 -2.84,-22.29 h -5.3 l 4.94,34.57 h 5.17 l 3.88,-23.08 3.9,23.08 h 5.03 l 4.94,-34.57 h -5.19 l -2.84,22.31 z m 9.23,-29.7 c 0,1.88 -0.31,3.17 -0.94,3.87 -0.63,0.7 -1.83,1.05 -3.61,1.05 H 121.4 V 21.72 h 2.04 c 1.03,0 1.85,0.09 2.45,0.27 0.6,0.18 1.06,0.51 1.37,0.99 0.31,0.48 0.5,1.01 0.58,1.59 0.09,0.6 0.13,1.42 0.13,2.49 m 3.5,7.1 c 1.61,-1.49 2.42,-3.85 2.42,-7.06 0,-6.55 -2.95,-9.82 -8.84,-9.82 h -9.95 v 34.57 h 6.3 V 36.4 h 3.25 c 2.93,0 5.21,-0.74 6.82,-2.24 m 5.96,17.7 h 6.21 V 17.28 h -6.21 z m 9.8,29.98 c 0,0.65 -0.02,1.22 -0.07,1.69 -0.05,0.47 -0.15,0.95 -0.29,1.42 -0.15,0.47 -0.35,0.86 -0.6,1.15 -0.26,0.29 -0.6,0.53 -1.03,0.71 -0.43,0.18 -0.95,0.27 -1.56,0.27 -0.61,0 -1.14,-0.09 -1.57,-0.27 -0.44,-0.18 -0.78,-0.42 -1.03,-0.71 -0.25,-0.29 -0.45,-0.67 -0.59,-1.15 -0.15,-0.47 -0.24,-0.94 -0.29,-1.42 -0.05,-0.47 -0.07,-1.03 -0.07,-1.69 v -15.7 c 0,-0.83 0.04,-1.53 0.13,-2.08 0.08,-0.56 0.24,-1.08 0.48,-1.57 0.24,-0.49 0.6,-0.86 1.09,-1.11 0.49,-0.24 1.12,-0.36 1.87,-0.36 0.75,0 1.37,0.12 1.85,0.36 0.49,0.24 0.85,0.61 1.1,1.11 0.24,0.49 0.41,1.02 0.49,1.57 0.08,0.56 0.13,1.25 0.13,2.08 v 15.7 z m 4.07,-22.62 c -1.55,-1.9 -4.1,-2.86 -7.64,-2.86 -1.82,0 -3.38,0.25 -4.67,0.74 -1.29,0.49 -2.32,1.23 -3.1,2.22 -0.77,0.99 -1.33,2.16 -1.68,3.5 -0.35,1.35 -0.52,2.94 -0.52,4.78 v 12.76 c 0,3.73 0.77,6.56 2.32,8.49 1.55,1.93 4.09,2.9 7.65,2.9 1.81,0 3.36,-0.26 4.65,-0.77 1.29,-0.51 2.33,-1.28 3.1,-2.28 0.77,-1.01 1.33,-2.2 1.69,-3.57 0.35,-1.37 0.53,-2.96 0.53,-4.76 V 67.6 c 0,-3.68 -0.78,-6.48 -2.33,-8.38 M 167.32,45.2 c 0.18,-1.03 0.27,-2.19 0.27,-3.48 v -2.84 h -6.07 v 3.09 c 0,0.56 0,0.99 -0.01,1.31 -0.01,0.32 -0.03,0.71 -0.07,1.17 -0.04,0.46 -0.1,0.82 -0.19,1.07 -0.08,0.26 -0.21,0.54 -0.37,0.83 -0.16,0.3 -0.35,0.53 -0.58,0.69 -0.23,0.16 -0.51,0.29 -0.85,0.4 -0.34,0.1 -0.73,0.16 -1.18,0.16 -1.31,0 -2.21,-0.43 -2.72,-1.29 -0.51,-0.86 -0.76,-2.31 -0.76,-4.34 V 27.33 c 0,-0.64 0.01,-1.17 0.03,-1.58 0.02,-0.42 0.07,-0.87 0.15,-1.37 0.08,-0.49 0.19,-0.89 0.34,-1.2 0.15,-0.31 0.35,-0.59 0.6,-0.86 0.25,-0.27 0.57,-0.47 0.97,-0.59 0.4,-0.13 0.86,-0.19 1.39,-0.19 h 0.33 c 1.4,0.08 2.29,0.71 2.65,1.88 0.18,0.6 0.27,1.76 0.27,3.48 v 2.94 h 6.07 v -2.96 c 0,-1.58 -0.16,-2.97 -0.48,-4.16 -0.32,-1.19 -0.83,-2.23 -1.54,-3.12 -0.71,-0.89 -1.68,-1.56 -2.9,-2.02 -1.22,-0.46 -2.7,-0.69 -4.42,-0.69 -1.5,0 -2.82,0.18 -3.95,0.54 -1.13,0.36 -2.07,0.86 -2.82,1.5 -0.74,0.64 -1.35,1.46 -1.8,2.45 -0.46,0.99 -0.78,2.07 -0.98,3.23 -0.19,1.16 -0.29,2.49 -0.29,3.99 v 12.05 c 0,1.42 0.09,2.69 0.28,3.83 0.19,1.13 0.51,2.19 0.98,3.18 0.46,0.99 1.07,1.81 1.81,2.48 0.74,0.67 1.69,1.19 2.83,1.56 1.14,0.38 2.45,0.56 3.94,0.56 1.43,0 2.69,-0.17 3.77,-0.51 1.08,-0.34 1.97,-0.81 2.67,-1.41 0.69,-0.6 1.26,-1.35 1.7,-2.25 0.44,-0.89 0.74,-1.86 0.93,-2.89 m 3.89,21.07 c 0,1.92 -0.39,3.27 -1.18,4.07 -0.79,0.79 -2.11,1.19 -3.97,1.19 h -1.52 V 61.1 h 1.9 c 1.82,0 3.07,0.4 3.75,1.2 0.68,0.79 1.02,2.12 1.02,3.97 m 3.05,-7.56 c -0.97,-0.7 -2.1,-1.2 -3.41,-1.5 -1.31,-0.3 -2.87,-0.45 -4.69,-0.45 h -7.92 v 34.57 h 6.3 V 75.55 h 2.79 l 4.13,15.79 h 6.32 l -4.8,-17.04 c 1.49,-0.63 2.56,-1.63 3.2,-3 0.64,-1.37 0.97,-3.15 0.97,-5.32 0,-1.74 -0.24,-3.21 -0.72,-4.41 -0.48,-1.21 -1.2,-2.16 -2.17,-2.86 m -2.32,-6.85 h 14.58 V 47.5 h -8.28 V 36.09 h 6.46 v -4.44 h -6.46 v -9.93 h 8.17 v -4.44 h -14.47 z m 23.08,4.9 -6.8,15.01 V 56.76 h -6.3 v 34.57 h 6.3 V 77.32 l 1.25,-2.25 5.96,16.26 h 6.28 l -7.3,-19.1 6.61,-15.47 z m 9.02,-4.9 h 4.13 V 17.28 h -5.21 v 19.58 l -8.47,-19.58 h -4.34 v 34.57 h 5.34 V 31.28 Z m 18.97,-29.93 h 5.61 v -4.65 h -17.7 v 4.65 h 5.8 v 29.92 h 6.3 V 21.93 Z m 11.33,87.82 c -0.71,-0.67 -1.77,-1.01 -3.19,-1.01 -0.82,0 -1.55,0.16 -2.18,0.48 -0.64,0.32 -1.13,0.76 -1.48,1.32 h -0.11 c 0.06,-0.4 0.09,-0.89 0.09,-1.49 v -4.98 h -1.76 v 16.46 h 1.76 v -6.06 c 0,-1.51 0.28,-2.6 0.84,-3.26 0.56,-0.66 1.45,-0.99 2.67,-0.99 0.92,0 1.59,0.23 2.02,0.7 0.43,0.47 0.65,1.17 0.65,2.12 v 7.5 h 1.76 v -7.56 c -0.01,-1.48 -0.36,-2.55 -1.07,-3.23 m -2.97,-57.89 h 14.58 V 47.5 h -8.28 V 36.09 h 6.46 v -4.44 h -6.46 v -9.93 h 8.17 v -4.44 h -14.47 z m 18.86,56.86 c -1.34,0 -2.39,0.27 -3.16,0.82 -0.77,0.55 -1.15,1.29 -1.15,2.24 0,0.53 0.11,0.98 0.33,1.36 0.22,0.38 0.56,0.72 1.02,1.02 0.45,0.3 1.22,0.65 2.3,1.05 1.14,0.44 1.9,0.82 2.29,1.14 0.39,0.32 0.59,0.71 0.59,1.16 0,0.6 -0.25,1.04 -0.74,1.34 -0.49,0.29 -1.2,0.44 -2.12,0.44 -0.59,0 -1.21,-0.08 -1.85,-0.24 -0.64,-0.16 -1.24,-0.39 -1.79,-0.67 v 1.63 c 0.86,0.49 2.06,0.73 3.6,0.73 1.45,0 2.58,-0.29 3.38,-0.88 0.8,-0.59 1.21,-1.42 1.21,-2.5 0,-0.77 -0.24,-1.41 -0.73,-1.92 -0.49,-0.51 -1.41,-1.01 -2.79,-1.51 -1,-0.37 -1.68,-0.66 -2.03,-0.86 -0.35,-0.2 -0.61,-0.41 -0.77,-0.62 -0.16,-0.22 -0.24,-0.48 -0.24,-0.79 0,-0.46 0.21,-0.82 0.64,-1.08 0.42,-0.26 1.05,-0.39 1.88,-0.39 0.94,0 2,0.24 3.16,0.72 l 0.62,-1.43 c -1.18,-0.5 -2.4,-0.76 -3.65,-0.76 m 12.32,-81.93 c 0,1.92 -0.39,3.27 -1.18,4.07 -0.79,0.79 -2.11,1.19 -3.97,1.19 h -1.52 V 21.62 h 1.9 c 1.82,0 3.07,0.4 3.75,1.2 0.68,0.8 1.02,2.12 1.02,3.97 m 4.97,5.03 c 0.65,-1.38 0.97,-3.15 0.97,-5.32 0,-1.74 -0.24,-3.21 -0.72,-4.41 -0.48,-1.2 -1.2,-2.15 -2.17,-2.86 -0.97,-0.7 -2.1,-1.2 -3.41,-1.5 -1.31,-0.3 -2.87,-0.45 -4.69,-0.45 h -7.92 v 34.57 h 6.3 V 36.07 h 2.79 l 4.13,15.78 h 6.32 l -4.8,-17.04 c 1.49,-0.62 2.56,-1.62 3.2,-2.99"
   class="st1" />
</g>
</svg>