<?xml version="1.0" encoding="utf-8"?>
<!-- Generator: Adobe Illustrator 23.0.1, SVG Export Plug-In . SVG Version: 6.00 Build 0)  -->
<svg version="1.1" id="Ebene_1" xmlns="http://www.w3.org/2000/svg" xmlns:xlink="http://www.w3.org/1999/xlink" x="0px" y="0px"
	 viewBox="0 0 283.46 141.73" style="enable-background:new 0 0 283.46 141.73;" xml:space="preserve">
<style type="text/css">
	.st0{clip-path:url(#SVGID_2_);fill:#239ED9;}
	.st1{clip-path:url(#SVGID_2_);fill:#00466E;}
</style>
<g>
	<defs>
		<rect id="SVGID_1_" x="14" y="16.89" width="255.12" height="108.84"/>
	</defs>
	<clipPath id="SVGID_2_">
		<use xlink:href="#SVGID_1_"  style="overflow:visible;"/>
	</clipPath>
	<path class="st0" d="M71.31,33.72c-5.02-5.02-11.44-7.79-18-8.33v-8.23c8.67,0.55,17.19,4.11,23.82,10.74
		c6.67,6.67,10.22,15.25,10.74,23.97h-8.23C79.14,45.25,76.37,38.78,71.31,33.72 M59.67,45.36c-1.81-1.8-4.03-2.93-6.36-3.39v-8.31
		c4.45,0.51,8.77,2.46,12.18,5.88c3.45,3.45,5.41,7.83,5.9,12.33h-8.31C62.64,49.49,61.51,47.2,59.67,45.36 M48.03,57
		c-1.61-1.61-1.61-4.21,0-5.82c1.61-1.61,4.21-1.61,5.82,0c1.61,1.61,1.61,4.21,0,5.82C52.24,58.61,49.63,58.61,48.03,57
		 M36.38,68.64c-3.44-3.44-5.39-7.79-5.89-12.27h8.31c0.44,2.36,1.57,4.62,3.4,6.45c1.87,1.87,4.19,2.99,6.6,3.41v8.32
		C44.27,74.09,39.86,72.12,36.38,68.64 M14,56.37h8.23c0.52,6.6,3.28,13.05,8.33,18.09c5.08,5.08,11.6,7.85,18.24,8.34v8.23
		c-8.76-0.5-17.37-4.06-24.07-10.75C18.09,73.63,14.53,65.08,14,56.37"/>
	<path class="st1" d="M239.14,108.72l-1.66,0.73v0.85h1.66v6.9c0,2.36,1.12,3.54,3.36,3.54c0.3,0,0.63-0.03,1-0.09
		c0.37-0.06,0.65-0.14,0.84-0.23v-1.34c-0.17,0.05-0.4,0.1-0.69,0.14c-0.29,0.05-0.59,0.07-0.9,0.07c-0.58,0-1.03-0.19-1.36-0.56
		c-0.33-0.37-0.5-0.91-0.5-1.61v-6.82h3.36v-1.36h-3.36v-2.69h-1.02L239.14,108.72z M214.09,122.47c0-0.71,0.22-1.26,0.67-1.64
		c0.44-0.38,1.07-0.57,1.86-0.57h2.11c1.07,0,1.8,0.12,2.19,0.36c0.39,0.24,0.58,0.68,0.58,1.31c0,0.75-0.35,1.35-1.06,1.79
		s-1.8,0.66-3.27,0.66c-0.99,0-1.74-0.16-2.27-0.49C214.35,123.58,214.09,123.1,214.09,122.47 M215.04,112.65
		c0-0.87,0.22-1.53,0.67-1.98s1.08-0.67,1.9-0.67c1.74,0,2.6,0.87,2.6,2.61c0,1.67-0.86,2.5-2.57,2.5c-0.82,0-1.46-0.21-1.91-0.62
		C215.27,114.07,215.04,113.46,215.04,112.65 M213.07,120.66c-0.45,0.51-0.68,1.12-0.68,1.83c0,1.03,0.41,1.83,1.23,2.39
		c0.82,0.56,1.99,0.85,3.51,0.85c1.97,0,3.48-0.34,4.51-1.01c1.03-0.67,1.54-1.65,1.54-2.94c0-1.01-0.34-1.78-1.01-2.31
		c-0.67-0.53-1.64-0.79-2.89-0.79h-2.05c-0.63,0-1.08-0.08-1.34-0.23c-0.26-0.15-0.39-0.39-0.39-0.7c0-0.6,0.37-1.1,1.12-1.49
		c0.3,0.06,0.63,0.08,0.97,0.08c1.35,0,2.42-0.34,3.19-1.01c0.78-0.68,1.16-1.58,1.16-2.72c0-0.5-0.08-0.95-0.23-1.35
		c-0.15-0.4-0.33-0.72-0.53-0.97l2.15-0.25v-1.11h-4.01c-0.49-0.14-1.03-0.21-1.64-0.21c-1.4,0-2.48,0.34-3.24,1.03
		c-0.76,0.69-1.14,1.67-1.14,2.94c0,0.76,0.19,1.44,0.57,2.03c0.38,0.59,0.87,1.01,1.46,1.26c-0.49,0.3-0.84,0.6-1.07,0.92
		c-0.22,0.32-0.34,0.69-0.34,1.11c0,0.37,0.1,0.7,0.3,0.98c0.2,0.28,0.45,0.49,0.75,0.62C214.16,119.8,213.53,120.15,213.07,120.66
		 M210.12,108.93h-1.76v11.59h1.76V108.93z M208.52,104.91c-0.2,0.19-0.3,0.48-0.3,0.88c0,0.39,0.1,0.69,0.3,0.88
		c0.2,0.19,0.45,0.29,0.74,0.29c0.28,0,0.53-0.1,0.73-0.29c0.2-0.19,0.31-0.49,0.31-0.88c0-0.4-0.1-0.69-0.31-0.88
		c-0.21-0.19-0.45-0.28-0.73-0.28C208.96,104.63,208.71,104.72,208.52,104.91 M203.65,81.2c0.31,7.03,3.5,10.55,9.59,10.55
		c2.59,0,4.68-0.79,6.27-2.36c1.59-1.57,2.39-3.61,2.39-6.13c0-1.1-0.13-2.14-0.4-3.13c-0.26-0.99-0.65-1.89-1.16-2.71
		c-0.51-0.82-1.04-1.55-1.6-2.19c-0.56-0.64-1.21-1.3-1.96-1.98l-4.5-3.92c-0.93-0.82-1.62-1.59-2.05-2.31
		c-0.44-0.72-0.66-1.63-0.66-2.74c0-0.95,0.25-1.7,0.74-2.26c0.49-0.56,1.21-0.87,2.14-0.93c0.54-0.04,1.02,0.03,1.43,0.23
		c0.41,0.19,0.74,0.46,0.98,0.78c0.24,0.33,0.44,0.75,0.6,1.28c0.15,0.53,0.26,1.05,0.32,1.56c0.06,0.51,0.11,1.12,0.14,1.81
		l5.38-1.06c-0.08-1.08-0.23-2.07-0.44-2.95c-0.21-0.88-0.52-1.73-0.95-2.56c-0.43-0.82-0.95-1.5-1.58-2.05
		c-0.63-0.55-1.44-0.99-2.41-1.31c-0.97-0.33-2.09-0.48-3.36-0.47c-2.75,0.03-4.92,0.79-6.49,2.27c-1.58,1.49-2.37,3.57-2.37,6.26
		c0,1.89,0.33,3.46,0.98,4.72c0.65,1.26,1.65,2.47,2.98,3.64l4.55,3.94c0.85,0.75,1.5,1.38,1.96,1.89c0.46,0.51,0.86,1.16,1.21,1.96
		c0.35,0.8,0.52,1.68,0.52,2.64c0,0.99-0.23,1.77-0.7,2.36c-0.47,0.58-1.18,0.88-2.14,0.88c-2.48,0-3.78-2.29-3.92-6.86L203.65,81.2
		z M200.97,108.93h-1.45v11.59h1.76v-6.22c0-1.14,0.33-2.08,1-2.85c0.67-0.76,1.47-1.14,2.41-1.14c0.37,0,0.79,0.05,1.27,0.16
		l0.24-1.63c-0.41-0.08-0.87-0.13-1.39-0.13c-0.73,0-1.39,0.2-2,0.61c-0.61,0.41-1.13,0.99-1.55,1.75h-0.08L200.97,108.93z
		 M190.17,104.07h-1.76v16.46h1.76V104.07z M177.34,117.34c0-0.81,0.31-1.41,0.93-1.79c0.62-0.38,1.62-0.6,3.02-0.65l1.76-0.07v1.05
		c0,1.08-0.31,1.92-0.94,2.52c-0.62,0.6-1.48,0.9-2.58,0.9c-0.69,0-1.23-0.17-1.61-0.5C177.54,118.46,177.34,117.98,177.34,117.34
		 M175.5,117.32c0,1.09,0.32,1.94,0.98,2.53c0.65,0.59,1.55,0.89,2.7,0.89c0.86,0,1.58-0.13,2.15-0.39
		c0.57-0.26,1.15-0.75,1.73-1.48h0.08l0.35,1.65h1.3v-7.91c0-1.35-0.33-2.34-1-2.95c-0.67-0.61-1.69-0.92-3.07-0.92
		c-0.68,0-1.37,0.09-2.05,0.26c-0.68,0.18-1.31,0.42-1.88,0.73l0.54,1.34c1.22-0.59,2.31-0.89,3.28-0.89c0.86,0,1.49,0.22,1.88,0.65
		c0.39,0.43,0.59,1.11,0.59,2.01v0.72l-1.97,0.06C177.38,113.75,175.5,114.98,175.5,117.32 M168.85,108.72l-1.66,0.73v0.85h1.66v6.9
		c0,2.36,1.12,3.54,3.36,3.54c0.3,0,0.63-0.03,1-0.09c0.37-0.06,0.65-0.14,0.84-0.23v-1.34c-0.17,0.05-0.4,0.1-0.69,0.14
		c-0.29,0.05-0.59,0.07-0.9,0.07c-0.58,0-1.03-0.19-1.37-0.56c-0.33-0.37-0.5-0.91-0.5-1.61v-6.82h3.36v-1.36h-3.36v-2.69h-1.01
		L168.85,108.72z M165,108.93h-1.76v11.59H165V108.93z M163.39,104.91c-0.2,0.19-0.3,0.48-0.3,0.88c0,0.39,0.1,0.69,0.3,0.88
		c0.2,0.19,0.45,0.29,0.74,0.29c0.28,0,0.53-0.1,0.73-0.29c0.2-0.19,0.31-0.49,0.31-0.88c0-0.4-0.1-0.69-0.31-0.88
		c-0.21-0.19-0.45-0.28-0.73-0.28C163.84,104.63,163.59,104.72,163.39,104.91 M151.62,122.47c0-0.71,0.22-1.26,0.67-1.64
		c0.44-0.38,1.07-0.57,1.86-0.57h2.1c1.07,0,1.8,0.12,2.19,0.36c0.39,0.24,0.58,0.68,0.58,1.31c0,0.75-0.35,1.35-1.06,1.79
		s-1.8,0.66-3.27,0.66c-0.99,0-1.74-0.16-2.27-0.49C151.88,123.58,151.62,123.1,151.62,122.47 M152.57,112.65
		c0-0.87,0.22-1.53,0.67-1.98s1.08-0.67,1.9-0.67c1.74,0,2.6,0.87,2.6,2.61c0,1.67-0.86,2.5-2.57,2.5c-0.82,0-1.46-0.21-1.91-0.62
		C152.8,114.07,152.57,113.46,152.57,112.65 M150.6,120.66c-0.45,0.51-0.68,1.12-0.68,1.83c0,1.03,0.41,1.83,1.23,2.39
		c0.82,0.56,1.99,0.85,3.51,0.85c1.97,0,3.48-0.34,4.51-1.01c1.03-0.67,1.54-1.65,1.54-2.94c0-1.01-0.34-1.78-1.01-2.31
		c-0.67-0.53-1.64-0.79-2.89-0.79h-2.05c-0.63,0-1.08-0.08-1.34-0.23c-0.26-0.15-0.39-0.39-0.39-0.7c0-0.6,0.37-1.1,1.12-1.49
		c0.3,0.06,0.63,0.08,0.97,0.08c1.35,0,2.42-0.34,3.19-1.01c0.78-0.68,1.16-1.58,1.16-2.72c0-0.5-0.08-0.95-0.23-1.35
		c-0.15-0.4-0.33-0.72-0.53-0.97l2.15-0.25v-1.11h-4.01c-0.49-0.14-1.03-0.21-1.64-0.21c-1.4,0-2.48,0.34-3.24,1.03
		c-0.76,0.69-1.14,1.67-1.14,2.94c0,0.76,0.19,1.44,0.57,2.03c0.38,0.59,0.87,1.01,1.46,1.26c-0.49,0.3-0.84,0.6-1.07,0.92
		c-0.23,0.32-0.34,0.69-0.34,1.11c0,0.37,0.1,0.7,0.3,0.98c0.2,0.28,0.45,0.49,0.75,0.62C151.69,119.8,151.06,120.15,150.6,120.66
		 M147.65,108.93h-1.76v11.59h1.76V108.93z M146.05,104.91c-0.2,0.19-0.3,0.48-0.3,0.88c0,0.39,0.1,0.69,0.3,0.88
		c0.2,0.19,0.45,0.29,0.74,0.29c0.28,0,0.53-0.1,0.73-0.29c0.2-0.19,0.31-0.49,0.31-0.88c0-0.4-0.1-0.69-0.31-0.88
		c-0.21-0.19-0.45-0.28-0.73-0.28C146.49,104.63,146.24,104.72,146.05,104.91 M133.8,114.78c0-1.46,0.27-2.59,0.82-3.39
		c0.55-0.8,1.33-1.2,2.36-1.2c1.2,0,2.07,0.35,2.62,1.05c0.55,0.7,0.82,1.87,0.82,3.52v0.37c0,1.45-0.27,2.51-0.81,3.16
		c-0.54,0.65-1.41,0.98-2.61,0.98c-1.05,0-1.85-0.38-2.39-1.13C134.07,117.38,133.8,116.26,133.8,114.78 M133.25,110.31
		c-0.85,1.06-1.27,2.54-1.27,4.45c0,1.91,0.42,3.38,1.26,4.42c0.84,1.04,2.02,1.56,3.54,1.56c1.61,0,2.83-0.59,3.64-1.77h0.1
		l0.23,1.56h1.43v-16.46h-1.76v4.72l0.04,0.82l0.07,0.83h-0.14c-0.84-1.14-2.04-1.71-3.62-1.71
		C135.27,108.72,134.09,109.25,133.25,110.31 M119.6,108.93h-1.45v11.59h1.76v-6.22c0-1.14,0.33-2.08,1-2.85
		c0.67-0.76,1.47-1.14,2.41-1.14c0.37,0,0.79,0.05,1.27,0.16l0.24-1.63c-0.41-0.08-0.87-0.13-1.39-0.13c-0.73,0-1.39,0.2-2,0.61
		c-0.61,0.41-1.12,0.99-1.55,1.75h-0.08L119.6,108.93z M106.24,114.72c0-1.49,0.29-2.62,0.88-3.37c0.58-0.75,1.45-1.13,2.6-1.13
		c1.16,0,2.04,0.38,2.64,1.15c0.6,0.76,0.89,1.88,0.89,3.36c0,1.49-0.3,2.62-0.89,3.39c-0.6,0.77-1.47,1.16-2.62,1.16
		c-1.15,0-2.02-0.39-2.61-1.16C106.54,117.33,106.24,116.2,106.24,114.72 M105.84,110.3c-0.94,1.06-1.42,2.53-1.42,4.42
		c0,1.22,0.22,2.29,0.65,3.19c0.44,0.91,1.06,1.61,1.86,2.09s1.72,0.73,2.76,0.73c1.68,0,2.99-0.53,3.94-1.59
		c0.95-1.06,1.43-2.54,1.43-4.43c0-1.84-0.48-3.3-1.43-4.38c-0.96-1.08-2.24-1.62-3.87-1.62
		C108.1,108.72,106.79,109.25,105.84,110.3 M98.25,108.87l-2.07,0.64v0.79h2.07v10.23H100V110.3h2.95v-1.36H100v-0.75
		c0-0.97,0.16-1.68,0.48-2.12c0.32-0.44,0.81-0.66,1.47-0.66c0.48,0,1.06,0.11,1.74,0.33l0.45-1.41c-0.82-0.25-1.54-0.37-2.16-0.37
		c-2.49,0-3.73,1.42-3.73,4.27V108.87z M97.11,85.75c-1.34,1.34-1.34,3.5,0,4.84s3.5,1.34,4.84,0s1.34-3.5,0-4.84
		C100.61,84.41,98.45,84.41,97.11,85.75 M96.9,51.86h14.58V47.5h-8.28V36.09h6.46v-4.44h-6.46v-9.93h8.17v-4.44H96.9V51.86z
		 M118.74,56.76h-4.23l-3.69,22.29l-2.84-22.29h-5.3l4.94,34.57h5.17l3.88-23.08l3.9,23.08h5.03l4.94-34.57h-5.19l-2.84,22.31
		L118.74,56.76z M127.97,27.06c0,1.88-0.31,3.17-0.94,3.87c-0.63,0.7-1.83,1.05-3.61,1.05h-2.02V21.72h2.04
		c1.03,0,1.85,0.09,2.45,0.27c0.6,0.18,1.06,0.51,1.37,0.99c0.31,0.48,0.5,1.01,0.58,1.59C127.93,25.17,127.97,25.99,127.97,27.06
		 M131.47,34.16c1.61-1.49,2.42-3.85,2.42-7.06c0-6.55-2.95-9.82-8.84-9.82h-9.95v34.57h6.3V36.4h3.25
		C127.58,36.4,129.86,35.66,131.47,34.16 M137.43,51.86h6.21V17.28h-6.21V51.86z M147.23,81.84c0,0.65-0.02,1.22-0.07,1.69
		c-0.05,0.47-0.15,0.95-0.29,1.42c-0.15,0.47-0.35,0.86-0.6,1.15c-0.26,0.29-0.6,0.53-1.03,0.71c-0.43,0.18-0.95,0.27-1.56,0.27
		c-0.61,0-1.14-0.09-1.57-0.27c-0.44-0.18-0.78-0.42-1.03-0.71s-0.45-0.67-0.59-1.15c-0.15-0.47-0.24-0.94-0.29-1.42
		c-0.05-0.47-0.07-1.03-0.07-1.69v-15.7c0-0.83,0.04-1.53,0.13-2.08c0.08-0.56,0.24-1.08,0.48-1.57c0.24-0.49,0.6-0.86,1.09-1.11
		c0.49-0.24,1.12-0.36,1.87-0.36c0.75,0,1.37,0.12,1.85,0.36c0.49,0.24,0.85,0.61,1.1,1.11c0.24,0.49,0.41,1.02,0.49,1.57
		c0.08,0.56,0.13,1.25,0.13,2.08V81.84z M151.3,59.22c-1.55-1.9-4.1-2.86-7.64-2.86c-1.82,0-3.38,0.25-4.67,0.74
		c-1.29,0.49-2.32,1.23-3.1,2.22c-0.77,0.99-1.33,2.16-1.68,3.5c-0.35,1.35-0.52,2.94-0.52,4.78v12.76c0,3.73,0.77,6.56,2.32,8.49
		s4.09,2.9,7.65,2.9c1.81,0,3.36-0.26,4.65-0.77s2.33-1.28,3.1-2.28c0.77-1.01,1.33-2.2,1.69-3.57c0.35-1.37,0.53-2.96,0.53-4.76
		V67.6C153.63,63.92,152.85,61.12,151.3,59.22 M167.32,45.2c0.18-1.03,0.27-2.19,0.27-3.48v-2.84h-6.07v3.09
		c0,0.56,0,0.99-0.01,1.31c-0.01,0.32-0.03,0.71-0.07,1.17c-0.04,0.46-0.1,0.82-0.19,1.07c-0.08,0.26-0.21,0.54-0.37,0.83
		c-0.16,0.3-0.35,0.53-0.58,0.69c-0.23,0.16-0.51,0.29-0.85,0.4c-0.34,0.1-0.73,0.16-1.18,0.16c-1.31,0-2.21-0.43-2.72-1.29
		c-0.51-0.86-0.76-2.31-0.76-4.34V27.33c0-0.64,0.01-1.17,0.03-1.58c0.02-0.42,0.07-0.87,0.15-1.37c0.08-0.49,0.19-0.89,0.34-1.2
		s0.35-0.59,0.6-0.86s0.57-0.47,0.97-0.59c0.4-0.13,0.86-0.19,1.39-0.19h0.33c1.4,0.08,2.29,0.71,2.65,1.88
		c0.18,0.6,0.27,1.76,0.27,3.48v2.94h6.07v-2.96c0-1.58-0.16-2.97-0.48-4.16c-0.32-1.19-0.83-2.23-1.54-3.12
		c-0.71-0.89-1.68-1.56-2.9-2.02c-1.22-0.46-2.7-0.69-4.42-0.69c-1.5,0-2.82,0.18-3.95,0.54c-1.13,0.36-2.07,0.86-2.82,1.5
		c-0.74,0.64-1.35,1.46-1.8,2.45c-0.46,0.99-0.78,2.07-0.98,3.23c-0.19,1.16-0.29,2.49-0.29,3.99v12.05c0,1.42,0.09,2.69,0.28,3.83
		c0.19,1.13,0.51,2.19,0.98,3.18c0.46,0.99,1.07,1.81,1.81,2.48c0.74,0.67,1.69,1.19,2.83,1.56c1.14,0.38,2.45,0.56,3.94,0.56
		c1.43,0,2.69-0.17,3.77-0.51c1.08-0.34,1.97-0.81,2.67-1.41c0.69-0.6,1.26-1.35,1.7-2.25C166.83,47.2,167.13,46.23,167.32,45.2
		 M171.21,66.27c0,1.92-0.39,3.27-1.18,4.07c-0.79,0.79-2.11,1.19-3.97,1.19h-1.52V61.1h1.9c1.82,0,3.07,0.4,3.75,1.2
		C170.87,63.09,171.21,64.42,171.21,66.27 M174.26,58.71c-0.97-0.7-2.1-1.2-3.41-1.5c-1.31-0.3-2.87-0.45-4.69-0.45h-7.92v34.57h6.3
		V75.55h2.79l4.13,15.79h6.32l-4.8-17.04c1.49-0.63,2.56-1.63,3.2-3s0.97-3.15,0.97-5.32c0-1.74-0.24-3.21-0.72-4.41
		C175.95,60.36,175.23,59.41,174.26,58.71 M171.94,51.86h14.58V47.5h-8.28V36.09h6.46v-4.44h-6.46v-9.93h8.17v-4.44h-14.47V51.86z
		 M195.02,56.76l-6.8,15.01V56.76h-6.3v34.57h6.3V77.32l1.25-2.25l5.96,16.26h6.28l-7.3-19.1l6.61-15.47H195.02z M204.04,51.86h4.13
		V17.28h-5.21v19.58l-8.47-19.58h-4.34v34.57h5.34V31.28L204.04,51.86z M223.01,21.93h5.61v-4.65h-17.7v4.65h5.8v29.92h6.3V21.93z
		 M234.34,109.75c-0.71-0.67-1.77-1.01-3.19-1.01c-0.82,0-1.55,0.16-2.18,0.48c-0.64,0.32-1.13,0.76-1.48,1.32h-0.11
		c0.06-0.4,0.09-0.89,0.09-1.49v-4.98h-1.76v16.46h1.76v-6.06c0-1.51,0.28-2.6,0.84-3.26c0.56-0.66,1.45-0.99,2.67-0.99
		c0.92,0,1.59,0.23,2.02,0.7c0.43,0.47,0.65,1.17,0.65,2.12v7.5h1.76v-7.56C235.4,111.5,235.05,110.43,234.34,109.75 M231.37,51.86
		h14.58V47.5h-8.28V36.09h6.46v-4.44h-6.46v-9.93h8.17v-4.44h-14.47V51.86z M250.23,108.72c-1.34,0-2.39,0.27-3.16,0.82
		c-0.77,0.55-1.15,1.29-1.15,2.24c0,0.53,0.11,0.98,0.33,1.36c0.22,0.38,0.56,0.72,1.02,1.02c0.45,0.3,1.22,0.65,2.3,1.05
		c1.14,0.44,1.9,0.82,2.29,1.14c0.39,0.32,0.59,0.71,0.59,1.16c0,0.6-0.25,1.04-0.74,1.34c-0.49,0.29-1.2,0.44-2.12,0.44
		c-0.59,0-1.21-0.08-1.85-0.24c-0.64-0.16-1.24-0.39-1.79-0.67v1.63c0.86,0.49,2.06,0.73,3.6,0.73c1.45,0,2.58-0.29,3.38-0.88
		c0.8-0.59,1.21-1.42,1.21-2.5c0-0.77-0.24-1.41-0.73-1.92s-1.41-1.01-2.79-1.51c-1-0.37-1.68-0.66-2.03-0.86
		c-0.35-0.2-0.61-0.41-0.77-0.62c-0.16-0.22-0.24-0.48-0.24-0.79c0-0.46,0.21-0.82,0.64-1.08c0.42-0.26,1.05-0.39,1.88-0.39
		c0.94,0,2,0.24,3.16,0.72l0.62-1.43C252.7,108.98,251.48,108.72,250.23,108.72 M262.55,26.79c0,1.92-0.39,3.27-1.18,4.07
		c-0.79,0.79-2.11,1.19-3.97,1.19h-1.52V21.62h1.9c1.82,0,3.07,0.4,3.75,1.2C262.21,23.62,262.55,24.94,262.55,26.79 M267.52,31.82
		c0.65-1.38,0.97-3.15,0.97-5.32c0-1.74-0.24-3.21-0.72-4.41c-0.48-1.2-1.2-2.15-2.17-2.86c-0.97-0.7-2.1-1.2-3.41-1.5
		c-1.31-0.3-2.87-0.45-4.69-0.45h-7.92v34.57h6.3V36.07h2.79l4.13,15.78h6.32l-4.8-17.04C265.81,34.19,266.88,33.19,267.52,31.82"/>
</g>
</svg>
