<?xml version="1.0" encoding="UTF-8" standalone="no"?>
<!-- Created with Inkscape (http://www.inkscape.org/) -->

<svg
   width="1920"
   height="250"
   viewBox="0 0 1920 250"
   version="1.1"
   id="svg8"
   enable-background="new"
   xmlns="http://www.w3.org/2000/svg"
   xmlns:svg="http://www.w3.org/2000/svg"
   xmlns:rdf="http://www.w3.org/1999/02/22-rdf-syntax-ns#"
   xmlns:cc="http://creativecommons.org/ns#"
   xmlns:dc="http://purl.org/dc/elements/1.1/">
  <defs
     id="defs2">
    <clipPath
       clipPathUnits="userSpaceOnUse"
       id="clipPath44">
      <path
         d="m 634.961,94.132 47.654,-24.281 33.722,66.183 -47.654,24.281 z"
         id="path42" />
    </clipPath>
    <clipPath
       clipPathUnits="userSpaceOnUse"
       id="clipPath64">
      <path
         d="m 10.689,129.531 h 51.673 v 72.296 H 10.689 Z"
         id="path62" />
    </clipPath>
    <clipPath
       clipPathUnits="userSpaceOnUse"
       id="clipPath104">
      <path
         d="m 416.605,0 h 95.649 v 123.481 h -95.649 z"
         id="path102" />
    </clipPath>
    <clipPath
       clipPathUnits="userSpaceOnUse"
       id="clipPath140">
      <path
         d="m 144.008,0 h 95.65 v 123.295 h -95.65 z"
         id="path138" />
    </clipPath>
    <clipPath
       clipPathUnits="userSpaceOnUse"
       id="clipPath176">
      <path
         d="m 304.154,4.396 h 95.649 v 127.891 h -95.649 z"
         id="path174" />
    </clipPath>
    <clipPath
       clipPathUnits="userSpaceOnUse"
       id="clipPath596">
      <path
         d="m 35.433,4.396 h 95.65 v 127.891 h -95.65 z"
         id="path594" />
    </clipPath>
    <clipPath
       clipPathUnits="userSpaceOnUse"
       id="clipPath632">
      <path
         d="m 561.981,4.507 h 95.65 v 127.89 h -95.65 z"
         id="path630" />
    </clipPath>
    <clipPath
       clipPathUnits="userSpaceOnUse"
       id="clipPath670">
      <path
         d="M 668.976,7.087 H 816.977 V 94.609 H 668.976 Z"
         id="path668" />
    </clipPath>
    <clipPath
       clipPathUnits="userSpaceOnUse"
       id="clipPath504">
      <path
         d="m 196.299,180.929 48.373,-9.842 9.842,48.374 -48.373,9.841 z"
         id="path502" />
    </clipPath>
  </defs>
  <metadata
     id="metadata5">
    <rdf:RDF>
      <cc:Work
         rdf:about="">
        <dc:format>image/svg+xml</dc:format>
        <dc:type
           rdf:resource="http://purl.org/dc/dcmitype/StillImage" />
      </cc:Work>
    </rdf:RDF>
  </metadata>
  <g
     id="layer1"
     transform="translate(0,-11.249983)">
    <g
       id="g98"
       transform="matrix(2.2814295,0,0,-2.2814295,0.00270381,305.87132)">
      <g
         id="g100"
         clip-path="url(#clipPath104)">
        <g
           id="g106"
           transform="translate(459.3232,7.4705)">
          <path
             d="M 0,0 4.391,86.228 12.56,2.1 C 12.661,1.863 12.513,1.595 12.259,1.554 L 0.451,-0.322 C 0.238,-0.356 0.037,-0.213 0,0"
             style="fill:#111b26;fill-opacity:1;fill-rule:nonzero;stroke:none"
             id="path108" />
        </g>
        <g
           id="g110"
           transform="translate(459.3232,7.4705)">
          <path
             d="M 0,0 4.391,86.228 12.56,2.1 C 12.661,1.863 12.513,1.595 12.259,1.554 L 0.451,-0.322 C 0.238,-0.356 0.037,-0.213 0,0 Z"
             style="fill:none;stroke:#666f7c;stroke-width:1.263;stroke-linecap:round;stroke-linejoin:miter;stroke-miterlimit:1;stroke-dasharray:none;stroke-opacity:1"
             id="path112" />
        </g>
        <g
           id="g114"
           transform="translate(469.4121,92.4351)">
          <path
             d="m 0,0 c -1.567,-3.236 -5.461,-4.589 -8.697,-3.022 -3.235,1.568 -4.588,5.461 -3.021,8.698 1.567,3.235 5.461,4.588 8.696,3.021 C 0.214,7.129 1.567,3.236 0,0"
             style="fill:#111b26;fill-opacity:1;fill-rule:nonzero;stroke:none"
             id="path116" />
        </g>
        <g
           id="g118"
           transform="translate(469.4121,92.4351)">
          <path
             d="m 0,0 c -1.567,-3.236 -5.461,-4.589 -8.697,-3.022 -3.235,1.568 -4.588,5.461 -3.021,8.698 1.567,3.235 5.461,4.588 8.696,3.021 C 0.214,7.129 1.567,3.236 0,0 Z"
             style="fill:none;stroke:#666f7c;stroke-width:1.263;stroke-linecap:round;stroke-linejoin:miter;stroke-miterlimit:10;stroke-dasharray:none;stroke-opacity:1"
             id="path120" />
        </g>
        <g
           id="g122"
           transform="translate(436.5686,80.722)">
          <path
             d="m 0,0 c -2.607,-0.057 -4.694,-2.236 -4.637,-4.843 l 0.433,-19.905 c 0.057,-2.607 2.236,-4.694 4.843,-4.637 l 54.905,1.194 c 2.607,0.057 4.693,2.236 4.637,4.843 l -0.433,19.905 c -0.057,2.607 -2.237,4.694 -4.844,4.637 z"
             style="fill:#ffffff;fill-opacity:1;fill-rule:nonzero;stroke:none"
             id="path124" />
        </g>
        <g
           id="g126"
           transform="translate(436.5686,80.722)">
          <path
             d="m 0,0 c -2.607,-0.057 -4.694,-2.236 -4.637,-4.843 l 0.433,-19.905 c 0.057,-2.607 2.236,-4.694 4.843,-4.637 l 54.905,1.194 c 2.607,0.057 4.693,2.236 4.637,4.843 l -0.433,19.905 c -0.057,2.607 -2.237,4.694 -4.844,4.637 z"
             style="fill:none;stroke:#666f7c;stroke-width:1.391;stroke-linecap:butt;stroke-linejoin:miter;stroke-miterlimit:10;stroke-dasharray:none;stroke-opacity:1"
             id="path128" />
        </g>
      </g>
    </g>
    <g
       aria-label="Völklabruck"
       id="text132"
       style="font-weight:500;font-size:20.5329px;font-family:'Poppins Medium';-inkscape-font-specification:Poppins-Medium;fill:#2b3a4d;stroke-width:2.28143"
       transform="rotate(-1.4113907,1022.193,133.12735)">
      <path
         d="m 1012.8336,147.66063 -5.3591,14.27037 h -2.7103 l -5.37963,-14.27037 h 2.50503 l 4.2298,11.86802 4.2503,-11.86802 z"
         id="path1094" />
      <path
         d="m 1019.5479,162.1158 q -1.6016,0 -2.8952,-0.71866 -1.2936,-0.73918 -2.0327,-2.05329 -0.7392,-1.33463 -0.7392,-3.07993 0,-1.72476 0.7597,-3.0594 0.7597,-1.33464 2.0738,-2.05329 1.3141,-0.71865 2.9362,-0.71865 1.6221,0 2.9362,0.71865 1.3141,0.71865 2.0738,2.05329 0.7598,1.33464 0.7598,3.0594 0,1.72476 -0.7803,3.0594 -0.7802,1.33464 -2.1354,2.07382 -1.3346,0.71866 -2.9567,0.71866 z m 0,-2.03276 q 0.9034,0 1.6837,-0.43119 0.8007,-0.43119 1.2935,-1.29357 0.4928,-0.86239 0.4928,-2.09436 0,-1.23197 -0.4722,-2.07382 -0.4723,-0.86239 -1.2525,-1.29358 -0.7803,-0.43119 -1.6837,-0.43119 -0.9035,0 -1.6837,0.43119 -0.7598,0.43119 -1.2115,1.29358 -0.4517,0.84185 -0.4517,2.07382 0,1.82743 0.924,2.83354 0.9445,0.98558 2.3613,0.98558 z m -1.6632,-11.06723 q -0.5133,0 -0.8829,-0.34906 -0.3491,-0.3696 -0.3491,-0.88292 0,-0.51332 0.3491,-0.86238 0.3696,-0.36959 0.8829,-0.36959 0.5133,0 0.8624,0.36959 0.3696,0.34906 0.3696,0.86238 0,0.51332 -0.3696,0.88292 -0.3491,0.34906 -0.8624,0.34906 z m 3.5316,0 q -0.5133,0 -0.8829,-0.34906 -0.349,-0.3696 -0.349,-0.88292 0,-0.51332 0.349,-0.86238 0.3696,-0.36959 0.8829,-0.36959 0.5134,0 0.8624,0.36959 0.3696,0.34906 0.3696,0.86238 0,0.51332 -0.3696,0.88292 -0.349,0.34906 -0.8624,0.34906 z"
         id="path1096" />
      <path
         d="M 1030.1633,146.73665 V 161.931 h -2.3407 v -15.19435 z"
         id="path1098" />
      <path
         d="m 1037.4729,156.28445 5.2154,5.64655 h -3.1621 l -4.1887,-4.8663 v 4.8663 h -2.3407 v -15.19435 h 2.3407 v 8.82915 l 4.1066,-4.94843 h 3.2442 z"
         id="path1100" />
      <path
         d="M 1046.1586,146.73665 V 161.931 h -2.3408 v -15.19435 z"
         id="path1102" />
      <path
         d="m 1048.2116,156.22285 q 0,-1.70423 0.6981,-3.01833 0.7187,-1.31411 1.9301,-2.03276 1.232,-0.73918 2.7104,-0.73918 1.3346,0 2.3202,0.53385 1.0061,0.51332 1.6016,1.29357 v -1.64263 h 2.3612 V 161.931 h -2.3612 v -1.6837 q -0.5955,0.80079 -1.6221,1.33464 -1.0267,0.53386 -2.3408,0.53386 -1.4578,0 -2.6693,-0.73919 -1.2114,-0.75972 -1.9301,-2.09435 -0.6981,-1.35518 -0.6981,-3.05941 z m 9.2604,0.0411 q 0,-1.17038 -0.4928,-2.03276 -0.4723,-0.86238 -1.2525,-1.3141 -0.7803,-0.45173 -1.6837,-0.45173 -0.9035,0 -1.6837,0.45173 -0.7803,0.43119 -1.2731,1.29357 -0.4722,0.84185 -0.4722,2.01222 0,1.17038 0.4722,2.05329 0.4928,0.88292 1.2731,1.35517 0.8008,0.45173 1.6837,0.45173 0.9034,0 1.6837,-0.45173 0.7802,-0.45172 1.2525,-1.3141 0.4928,-0.88292 0.4928,-2.05329 z"
         id="path1104" />
      <path
         d="m 1065.1924,152.30107 q 0.5954,-0.82132 1.6221,-1.33464 1.0471,-0.53385 2.3202,-0.53385 1.4989,0 2.7103,0.71865 1.2115,0.71865 1.9096,2.05329 0.6981,1.3141 0.6981,3.01833 0,1.70423 -0.6981,3.05941 -0.6981,1.33463 -1.9301,2.09435 -1.2115,0.73919 -2.6898,0.73919 -1.3141,0 -2.3408,-0.51333 -1.0061,-0.51332 -1.6015,-1.3141 v 1.64263 h -2.3408 v -15.19435 h 2.3408 z m 6.8785,3.92178 q 0,-1.17037 -0.4928,-2.01222 -0.4723,-0.86238 -1.273,-1.29357 -0.7803,-0.45173 -1.6837,-0.45173 -0.883,0 -1.6837,0.45173 -0.7803,0.45172 -1.2731,1.3141 -0.4722,0.86238 -0.4722,2.03276 0,1.17037 0.4722,2.05329 0.4928,0.86238 1.2731,1.3141 0.8007,0.45173 1.6837,0.45173 0.9034,0 1.6837,-0.45173 0.8007,-0.47225 1.273,-1.35517 0.4928,-0.88291 0.4928,-2.05329 z"
         id="path1106" />
      <path
         d="m 1079.0521,152.26 q 0.5133,-0.86238 1.3552,-1.33463 0.8624,-0.49279 2.0327,-0.49279 v 2.42288 h -0.5954 q -1.3757,0 -2.0944,0.69812 -0.6981,0.69812 -0.6981,2.42288 v 5.95454 h -2.3407 v -11.31363 h 2.3407 z"
         id="path1108" />
      <path
         d="M 1095.1499,150.61737 V 161.931 h -2.3408 v -1.33464 q -0.5543,0.69812 -1.4578,1.10878 -0.8829,0.39012 -1.889,0.39012 -1.3347,0 -2.4024,-0.55439 -1.0471,-0.55438 -1.6631,-1.64263 -0.5955,-1.08824 -0.5955,-2.62821 v -6.65266 h 2.3202 v 6.3036 q 0,1.51944 0.7598,2.34075 0.7597,0.80079 2.0738,0.80079 1.3141,0 2.0738,-0.80079 0.7802,-0.82131 0.7802,-2.34075 v -6.3036 z"
         id="path1110" />
      <path
         d="m 1097.3674,156.26392 q 0,-1.7453 0.6981,-3.0594 0.7187,-1.33464 1.9712,-2.05329 1.2525,-0.71865 2.8746,-0.71865 2.0533,0 3.3879,0.98558 1.3552,0.96504 1.8274,2.77194 h -2.5255 q -0.308,-0.84185 -0.9856,-1.31411 -0.6776,-0.47226 -1.7042,-0.47226 -1.4373,0 -2.2997,1.02665 -0.8419,1.00611 -0.8419,2.83354 0,1.82743 0.8419,2.85407 0.8624,1.02665 2.2997,1.02665 2.0327,0 2.6898,-1.78636 h 2.5255 q -0.4928,1.72476 -1.8479,2.7514 -1.3552,1.00612 -3.3674,1.00612 -1.6221,0 -2.8746,-0.71866 -1.2525,-0.73918 -1.9712,-2.05329 -0.6981,-1.33463 -0.6981,-3.07993 z"
         id="path1112" />
      <path
         d="m 1115.3335,156.28445 5.2154,5.64655 h -3.1621 l -4.1887,-4.8663 v 4.8663 h -2.3407 v -15.19435 h 2.3407 v 8.82915 l 4.1066,-4.94843 h 3.2442 z"
         id="path1114" />
    </g>
    <g
       id="g134"
       transform="matrix(2.2814295,0,0,-2.2814295,0.00270381,305.87132)">
      <g
         id="g136"
         clip-path="url(#clipPath140)">
        <g
           id="g142"
           transform="translate(186.7269,7.2841)">
          <path
             d="M 0,0 4.391,86.228 12.56,2.1 C 12.661,1.863 12.513,1.595 12.259,1.554 L 0.451,-0.322 C 0.238,-0.356 0.037,-0.213 0,0"
             style="fill:#111b26;fill-opacity:1;fill-rule:nonzero;stroke:none"
             id="path144" />
        </g>
        <g
           id="g146"
           transform="translate(186.7269,7.2841)">
          <path
             d="M 0,0 4.391,86.228 12.56,2.1 C 12.661,1.863 12.513,1.595 12.259,1.554 L 0.451,-0.322 C 0.238,-0.356 0.037,-0.213 0,0 Z"
             style="fill:none;stroke:#666f7c;stroke-width:1.263;stroke-linecap:round;stroke-linejoin:miter;stroke-miterlimit:1;stroke-dasharray:none;stroke-opacity:1"
             id="path148" />
        </g>
        <g
           id="g150"
           transform="translate(196.8158,92.2486)">
          <path
             d="m 0,0 c -1.567,-3.236 -5.461,-4.589 -8.697,-3.022 -3.235,1.568 -4.588,5.461 -3.021,8.698 1.567,3.235 5.461,4.588 8.696,3.021 C 0.214,7.129 1.567,3.236 0,0"
             style="fill:#111b26;fill-opacity:1;fill-rule:nonzero;stroke:none"
             id="path152" />
        </g>
        <g
           id="g154"
           transform="translate(196.8158,92.2486)">
          <path
             d="m 0,0 c -1.567,-3.236 -5.461,-4.589 -8.697,-3.022 -3.235,1.568 -4.588,5.461 -3.021,8.698 1.567,3.235 5.461,4.588 8.696,3.021 C 0.214,7.129 1.567,3.236 0,0 Z"
             style="fill:none;stroke:#666f7c;stroke-width:1.263;stroke-linecap:round;stroke-linejoin:miter;stroke-miterlimit:10;stroke-dasharray:none;stroke-opacity:1"
             id="path156" />
        </g>
        <g
           id="g158"
           transform="translate(163.9724,84.4876)">
          <path
             d="m 0,0 c -2.607,-0.057 -4.694,-2.236 -4.637,-4.843 l 0.433,-19.905 c 0.057,-2.607 2.236,-4.694 4.843,-4.637 l 54.905,1.194 c 2.607,0.057 4.693,2.236 4.637,4.843 l -0.433,19.905 c -0.057,2.607 -2.237,4.694 -4.844,4.637 z"
             style="fill:#ffffff;fill-opacity:1;fill-rule:nonzero;stroke:none"
             id="path160" />
        </g>
        <g
           id="g162"
           transform="translate(163.9724,84.4876)">
          <path
             d="m 0,0 c -2.607,-0.057 -4.694,-2.236 -4.637,-4.843 l 0.433,-19.905 c 0.057,-2.607 2.236,-4.694 4.843,-4.637 l 54.905,1.194 c 2.607,0.057 4.693,2.236 4.637,4.843 l -0.433,19.905 c -0.057,2.607 -2.237,4.694 -4.844,4.637 z"
             style="fill:none;stroke:#666f7c;stroke-width:1.391;stroke-linecap:butt;stroke-linejoin:miter;stroke-miterlimit:10;stroke-dasharray:none;stroke-opacity:1"
             id="path164" />
        </g>
      </g>
    </g>
    <g
       aria-label="Wels"
       id="text168"
       style="font-weight:500;font-size:20.5329px;font-family:'Poppins Medium';-inkscape-font-specification:Poppins-Medium;fill:#2b3a4d;stroke-width:2.28143"
       transform="rotate(-1.2809507,292.80864,90.175947)">
      <path
         d="m 433.16002,140.70818 -4.22977,14.27037 h -2.64875 l -2.9978,-10.80031 -3.1826,10.80031 -2.62821,0.0205 -4.04498,-14.2909 h 2.48448 l 2.95673,11.62162 3.20314,-11.62162 h 2.62821 l 2.97727,11.56002 2.97727,-11.56002 z"
         id="path1085" />
      <path
         d="m 445.39752,149.04454 q 0,0.63652 -0.0821,1.14984 h -8.64435 q 0.10267,1.35517 1.00612,2.17649 0.90344,0.82131 2.21755,0.82131 1.88903,0 2.66928,-1.58103 h 2.52554 q -0.51332,1.5605 -1.86849,2.56661 -1.33464,0.98558 -3.32633,0.98558 -1.6221,0 -2.91567,-0.71865 -1.27304,-0.73918 -2.01223,-2.05329 -0.71865,-1.33464 -0.71865,-3.07993 0,-1.7453 0.69812,-3.05941 0.71865,-1.33463 1.99169,-2.05329 1.29357,-0.71865 2.95674,-0.71865 1.60156,0 2.85407,0.69812 1.25251,0.69812 1.95063,1.97116 0.69812,1.25251 0.69812,2.89514 z m -2.44342,-0.73919 q -0.0205,-1.29357 -0.92398,-2.07382 -0.90345,-0.78025 -2.23809,-0.78025 -1.21144,0 -2.07382,0.78025 -0.86238,0.75972 -1.02664,2.07382 z"
         id="path1087" />
      <path
         d="m 450.14058,139.7842 v 15.19435 h -2.34076 V 139.7842 Z"
         id="path1089" />
      <path
         d="m 457.08066,155.16334 q -1.33464,0 -2.40235,-0.47225 -1.04718,-0.49279 -1.66316,-1.31411 -0.61599,-0.84185 -0.65706,-1.86849 h 2.42289 q 0.0616,0.71865 0.67758,1.21144 0.63652,0.47225 1.58103,0.47225 0.98558,0 1.51944,-0.36959 0.55439,-0.39012 0.55439,-0.98558 0,-0.63652 -0.61599,-0.94451 -0.59545,-0.30799 -1.90956,-0.67759 -1.27304,-0.34906 -2.07382,-0.67758 -0.80079,-0.32853 -1.39624,-1.00611 -0.57492,-0.67759 -0.57492,-1.78637 0,-0.90344 0.53385,-1.64263 0.53386,-0.75972 1.51944,-1.19091 1.00611,-0.43119 2.29968,-0.43119 1.9301,0 3.10047,0.98558 1.19091,0.96505 1.27304,2.64875 h -2.34075 q -0.0616,-0.75972 -0.61599,-1.21145 -0.55438,-0.45172 -1.4989,-0.45172 -0.92398,0 -1.41677,0.34906 -0.49279,0.34906 -0.49279,0.92398 0,0.45172 0.32853,0.75972 0.32853,0.30799 0.80078,0.49279 0.47226,0.16426 1.39624,0.43119 1.23197,0.32852 2.01222,0.67758 0.80079,0.32853 1.37571,0.98558 0.57492,0.65706 0.59545,1.7453 0,0.96505 -0.53385,1.72476 -0.53386,0.75972 -1.51944,1.19091 -0.96504,0.43119 -2.27915,0.43119 z"
         id="path1091" />
    </g>
    <g
       id="g170"
       transform="matrix(2.2814295,0,0,-2.2814295,0.00270381,305.87132)">
      <g
         id="g172"
         clip-path="url(#clipPath176)">
        <g
           id="g178"
           transform="translate(346.8726,16.2768)">
          <path
             d="M 0,0 4.391,86.228 12.56,2.1 C 12.661,1.863 12.513,1.595 12.259,1.554 L 0.451,-0.322 C 0.238,-0.356 0.037,-0.213 0,0"
             style="fill:#111b26;fill-opacity:1;fill-rule:nonzero;stroke:none"
             id="path180" />
        </g>
        <g
           id="g182"
           transform="translate(346.8726,16.2768)">
          <path
             d="M 0,0 4.391,86.228 12.56,2.1 C 12.661,1.863 12.513,1.595 12.259,1.554 L 0.451,-0.322 C 0.238,-0.356 0.037,-0.213 0,0 Z"
             style="fill:none;stroke:#666f7c;stroke-width:1.263;stroke-linecap:round;stroke-linejoin:miter;stroke-miterlimit:1;stroke-dasharray:none;stroke-opacity:1"
             id="path184" />
        </g>
        <g
           id="g186"
           transform="translate(356.9615,101.2414)">
          <path
             d="m 0,0 c -1.567,-3.236 -5.461,-4.589 -8.697,-3.022 -3.235,1.568 -4.588,5.461 -3.021,8.698 1.567,3.235 5.461,4.588 8.696,3.021 C 0.214,7.129 1.567,3.236 0,0"
             style="fill:#111b26;fill-opacity:1;fill-rule:nonzero;stroke:none"
             id="path188" />
        </g>
        <g
           id="g190"
           transform="translate(356.9615,101.2414)">
          <path
             d="m 0,0 c -1.567,-3.236 -5.461,-4.589 -8.697,-3.022 -3.235,1.568 -4.588,5.461 -3.021,8.698 1.567,3.235 5.461,4.588 8.696,3.021 C 0.214,7.129 1.567,3.236 0,0 Z"
             style="fill:none;stroke:#666f7c;stroke-width:1.263;stroke-linecap:round;stroke-linejoin:miter;stroke-miterlimit:10;stroke-dasharray:none;stroke-opacity:1"
             id="path192" />
        </g>
        <g
           id="g194"
           transform="translate(326.5293,91.6976)">
          <path
             d="m 0,0 c -2.586,0.332 -4.975,-1.511 -5.307,-4.098 l -2.539,-19.747 c -0.332,-2.586 1.511,-4.975 4.098,-5.307 l 54.469,-7.003 c 2.586,-0.333 4.975,1.511 5.307,4.098 l 2.539,19.746 c 0.332,2.587 -1.512,4.975 -4.098,5.308 z"
             style="fill:#ffffff;fill-opacity:1;fill-rule:nonzero;stroke:none"
             id="path196" />
        </g>
        <g
           id="g198"
           transform="translate(326.5293,91.6976)">
          <path
             d="m 0,0 c -2.586,0.332 -4.975,-1.511 -5.307,-4.098 l -2.539,-19.747 c -0.332,-2.586 1.511,-4.975 4.098,-5.307 l 54.469,-7.003 c 2.586,-0.333 4.975,1.511 5.307,4.098 l 2.539,19.746 c 0.332,2.587 -1.512,4.975 -4.098,5.308 z"
             style="fill:none;stroke:#666f7c;stroke-width:1.391;stroke-linecap:butt;stroke-linejoin:miter;stroke-miterlimit:10;stroke-dasharray:none;stroke-opacity:1"
             id="path200" />
        </g>
      </g>
    </g>
    <g
       aria-label="Steyr"
       transform="rotate(7.4360971,74.644808,12.37762)"
       id="text204"
       style="font-weight:500;font-size:20.5329px;font-family:'Poppins Medium';-inkscape-font-specification:Poppins-Medium;fill:#2b3a4d;stroke-width:2.28143">
      <path
         d="m 794.40374,48.07222 q -1.4373,0 -2.58714,-0.49279 -1.14984,-0.513322 -1.8069,-1.437303 -0.65705,-0.92398 -0.65705,-2.155954 h 2.50502 q 0.0821,0.92398 0.71865,1.519435 0.65705,0.595454 1.82742,0.595454 1.21145,0 1.88903,-0.574922 0.67759,-0.595454 0.67759,-1.519434 0,-0.718652 -0.43119,-1.170375 -0.41066,-0.451724 -1.04718,-0.698119 -0.61599,-0.246395 -1.72477,-0.533855 -1.39623,-0.369593 -2.27915,-0.739185 -0.86238,-0.390125 -1.47837,-1.190908 -0.61598,-0.800783 -0.61598,-2.135422 0,-1.231974 0.61598,-2.155954 0.61599,-0.923981 1.72477,-1.41677 1.10877,-0.49279 2.56661,-0.49279 2.07382,0 3.38793,1.047178 1.33464,1.026645 1.47837,2.83354 h -2.58715 q -0.0616,-0.78025 -0.73918,-1.334638 -0.67759,-0.554389 -1.78636,-0.554389 -1.00612,0 -1.64264,0.513323 -0.63652,0.513322 -0.63652,1.478369 0,0.657053 0.39013,1.088243 0.41066,0.410658 1.02664,0.657053 0.61599,0.246395 1.6837,0.533856 1.41677,0.390125 2.29969,0.78025 0.90344,0.390125 1.51943,1.211441 0.63652,0.800783 0.63652,2.155954 0,1.088244 -0.59545,2.05329 -0.57492,0.965047 -1.70423,1.560501 -1.10878,0.574921 -2.62822,0.574921 z"
         id="path1057" />
      <path
         d="m 804.30045,38.524422 v 6.262534 q 0,0.63652 0.28746,0.923981 0.30799,0.266927 1.02664,0.266927 h 1.4373 v 1.950626 h -1.84796 q -1.58103,0 -2.42288,-0.739185 -0.84185,-0.739184 -0.84185,-2.402349 v -6.262534 h -1.33464 v -1.90956 h 1.33464 v -2.813007 h 2.36129 v 2.813007 h 2.7514 v 1.90956 z"
         id="path1059" />
      <path
         d="m 819.82339,41.994482 q 0,0.63652 -0.0821,1.149842 h -8.64435 q 0.10266,1.355171 1.00611,2.176487 0.90345,0.821316 2.21755,0.821316 1.88903,0 2.66928,-1.581033 h 2.52555 q -0.51333,1.5605 -1.8685,2.566613 -1.33464,0.985579 -3.32633,0.985579 -1.6221,0 -2.91567,-0.718652 -1.27304,-0.739184 -2.01222,-2.05329 -0.71866,-1.334638 -0.71866,-3.079935 0,-1.745296 0.69812,-3.059402 0.71865,-1.334638 1.99169,-2.05329 1.29358,-0.718651 2.95674,-0.718651 1.60157,0 2.85407,0.698118 1.25251,0.698119 1.95063,1.971159 0.69812,1.252507 0.69812,2.895139 z m -2.44342,-0.739185 q -0.0205,-1.293572 -0.92398,-2.073823 -0.90344,-0.78025 -2.23808,-0.78025 -1.21144,0 -2.07383,0.78025 -0.86238,0.759718 -1.02664,2.073823 z"
         id="path1061" />
      <path
         d="m 832.41002,36.614862 -6.94012,16.631649 h -2.42289 l 2.29969,-5.502817 -4.45564,-11.128832 h 2.60768 l 3.1826,8.623818 3.30579,-8.623818 z"
         id="path1063" />
      <path
         d="m 836.57798,38.257494 q 0.51333,-0.862382 1.35518,-1.334639 0.86238,-0.492789 2.03275,-0.492789 v 2.422882 h -0.59545 q -1.37571,0 -2.09436,0.698119 -0.69812,0.698118 -0.69812,2.422882 v 5.954541 h -2.34075 V 36.614862 h 2.34075 z"
         id="path1065" />
    </g>
    <g
       id="g590"
       transform="matrix(2.2814295,0,0,-2.2814295,0.00270381,985.79768)">
      <g
         id="g592"
         clip-path="url(#clipPath596)"
         transform="translate(0,298.02646)">
        <g
           id="g598"
           transform="matrix(1.0466687,0,0,1.0364716,86.787856,15.610364)">
          <path
             d="M 0,0 -11.195,80.129 12.56,2.1 C 12.661,1.863 12.513,1.595 12.259,1.554 L 0.451,-0.322 C 0.238,-0.356 0.037,-0.213 0,0"
             style="fill:#111b26;fill-opacity:1;fill-rule:nonzero;stroke:none"
             id="path600" />
        </g>
        <g
           id="g602"
           transform="translate(86.2654,18.5328)">
          <path
             d="M 0.53629048,-2.9221938 -11.168833,80.119991 13.668614,-0.74584584 C 13.774216,-0.99146226 13.619472,-1.2692057 13.353898,-1.3116963 L 1.0078412,-3.2559005 c -0.22270575,-0.035236 -0.43286474,0.1129628 -0.47155072,0.3337067 z"
             style="fill:none;stroke:#666f7c;stroke-width:1.31472;stroke-linecap:round;stroke-linejoin:miter;stroke-miterlimit:1;stroke-dasharray:none;stroke-opacity:1"
             id="path604" />
        </g>
        <g
           id="g606"
           transform="translate(80.7677,97.3982)">
          <path
             d="m 0,0 c -1.567,-3.236 -5.461,-4.589 -8.697,-3.022 -3.235,1.568 -4.588,5.461 -3.021,8.698 1.567,3.235 5.461,4.588 8.696,3.021 C 0.214,7.129 1.567,3.236 0,0"
             style="fill:#111b26;fill-opacity:1;fill-rule:nonzero;stroke:none"
             id="path608" />
        </g>
        <g
           id="g610"
           transform="translate(80.7677,97.3982)">
          <path
             d="m 0,0 c -1.567,-3.236 -5.461,-4.589 -8.697,-3.022 -3.235,1.568 -4.588,5.461 -3.021,8.698 1.567,3.235 5.461,4.588 8.696,3.021 C 0.214,7.129 1.567,3.236 0,0 Z"
             style="fill:none;stroke:#666f7c;stroke-width:1.263;stroke-linecap:round;stroke-linejoin:miter;stroke-miterlimit:10;stroke-dasharray:none;stroke-opacity:1"
             id="path612" />
        </g>
        <g
           id="g614"
           transform="translate(52.6608,86.3408)">
          <path
             d="m 0,0 c -2.575,-0.413 -4.343,-2.858 -3.93,-5.433 l 3.155,-19.658 c 0.414,-2.574 2.858,-4.343 5.433,-3.93 l 54.223,8.704 c 2.575,0.413 4.344,2.857 3.93,5.432 L 59.656,4.773 c -0.413,2.575 -2.858,4.343 -5.433,3.93 z"
             style="fill:#ffffff;fill-opacity:1;fill-rule:nonzero;stroke:none"
             id="path616" />
        </g>
        <g
           id="g618"
           transform="translate(52.6608,86.3408)">
          <path
             d="m 0,0 c -2.575,-0.413 -4.343,-2.858 -3.93,-5.433 l 3.155,-19.658 c 0.414,-2.574 2.858,-4.343 5.433,-3.93 l 54.223,8.704 c 2.575,0.413 4.344,2.857 3.93,5.432 L 59.656,4.773 c -0.413,2.575 -2.858,4.343 -5.433,3.93 z"
             style="fill:none;stroke:#666f7c;stroke-width:1.391;stroke-linecap:butt;stroke-linejoin:miter;stroke-miterlimit:10;stroke-dasharray:none;stroke-opacity:1"
             id="path620" />
        </g>
      </g>
    </g>
    <g
       id="g626"
       transform="matrix(2.2814295,0,0,-2.2814295,0.55236899,310.98142)">
      <g
         id="g628"
         clip-path="url(#clipPath632)">
        <g
           id="g634"
           transform="translate(606.7986,18.6433)">
          <path
             d="M 0,0 11.195,80.129 -12.56,2.1 c -0.101,-0.237 0.047,-0.505 0.301,-0.546 L -0.451,-0.322 C -0.238,-0.356 -0.037,-0.213 0,0"
             style="fill:#111b26;fill-opacity:1;fill-rule:nonzero;stroke:none"
             id="path636" />
        </g>
        <g
           id="g638"
           transform="translate(606.7986,18.6433)">
          <path
             d="M 0,0 11.195,80.129 -12.56,2.1 c -0.101,-0.237 0.047,-0.505 0.301,-0.546 L -0.451,-0.322 C -0.238,-0.356 -0.037,-0.213 0,0 Z"
             style="fill:none;stroke:#666f7c;stroke-width:1.263;stroke-linecap:round;stroke-linejoin:miter;stroke-miterlimit:1;stroke-dasharray:none;stroke-opacity:1"
             id="path640" />
        </g>
        <g
           id="g642"
           transform="translate(612.2963,97.5087)">
          <path
             d="m 0,0 c 1.567,-3.236 5.461,-4.589 8.697,-3.022 3.235,1.568 4.588,5.461 3.021,8.698 C 10.151,8.911 6.257,10.264 3.022,8.697 -0.214,7.129 -1.567,3.236 0,0"
             style="fill:#111b26;fill-opacity:1;fill-rule:nonzero;stroke:none"
             id="path644" />
        </g>
        <g
           id="g646"
           transform="translate(612.2963,97.5087)">
          <path
             d="m 0,0 c 1.567,-3.236 5.461,-4.589 8.697,-3.022 3.235,1.568 4.588,5.461 3.021,8.698 C 10.151,8.911 6.257,10.264 3.022,8.697 -0.214,7.129 -1.567,3.236 0,0 Z"
             style="fill:none;stroke:#666f7c;stroke-width:1.263;stroke-linecap:round;stroke-linejoin:miter;stroke-miterlimit:10;stroke-dasharray:none;stroke-opacity:1"
             id="path648" />
        </g>
        <g
           id="g650"
           transform="translate(640.4033,86.4513)">
          <path
             d="M 0,0 C 2.575,-0.413 4.343,-2.858 3.93,-5.433 L 0.775,-25.091 c -0.414,-2.574 -2.858,-4.343 -5.433,-3.93 l -54.223,8.704 c -2.575,0.413 -4.344,2.857 -3.93,5.432 l 3.155,19.658 c 0.413,2.575 2.858,4.343 5.433,3.93 z"
             style="fill:#ffffff;fill-opacity:1;fill-rule:nonzero;stroke:none"
             id="path652" />
        </g>
        <g
           id="g654"
           transform="translate(640.4033,86.4513)">
          <path
             d="M 0,0 C 2.575,-0.413 4.343,-2.858 3.93,-5.433 L 0.775,-25.091 c -0.414,-2.574 -2.858,-4.343 -5.433,-3.93 l -54.223,8.704 c -2.575,0.413 -4.344,2.857 -3.93,5.432 l 3.155,19.658 c 0.413,2.575 2.858,4.343 5.433,3.93 z"
             style="fill:none;stroke:#666f7c;stroke-width:1.391;stroke-linecap:butt;stroke-linejoin:miter;stroke-miterlimit:10;stroke-dasharray:none;stroke-opacity:1"
             id="path656" />
        </g>
      </g>
    </g>
    <g
       aria-label="Linz Stadt"
       transform="rotate(8.9999312)"
       id="text660"
       style="font-weight:500;font-size:20.5329px;font-family:'Poppins Medium';-inkscape-font-specification:Poppins-Medium;fill:#2b3a4d;stroke-width:2.28143">
      <path
         d="m 1386.1438,-77.822481 h 4.8252 v 1.889026 h -7.1659 V -90.20382 h 2.3407 z"
         id="path1117" />
      <path
         d="m 1394.1722,-88.745984 q -0.6365,0 -1.0677,-0.431191 -0.4312,-0.431191 -0.4312,-1.067711 0,-0.63652 0.4312,-1.067711 0.4312,-0.431191 1.0677,-0.431191 0.616,0 1.0472,0.431191 0.4312,0.431191 0.4312,1.067711 0,0.63652 -0.4312,1.067711 -0.4312,0.431191 -1.0472,0.431191 z m 1.1498,1.498902 v 11.313627 h -2.3407 v -11.313627 z"
         id="path1119" />
      <path
         d="m 1403.8636,-87.431879 q 1.3347,0 2.3818,0.554389 1.0678,0.554388 1.6632,1.642632 0.5955,1.088243 0.5955,2.628211 v 6.673192 h -2.3203 v -6.324133 q 0,-1.519434 -0.7597,-2.320218 -0.7597,-0.821315 -2.0738,-0.821315 -1.3141,0 -2.0944,0.821315 -0.7597,0.800784 -0.7597,2.320218 v 6.324133 h -2.3407 v -11.313627 h 2.3407 v 1.293572 q 0.575,-0.698118 1.4579,-1.088243 0.9034,-0.390126 1.9095,-0.390126 z"
         id="path1121" />
      <path
         d="m 1413.6373,-77.843014 h 5.1332 v 1.909559 h -7.8436 v -1.909559 l 5.1538,-7.494509 h -5.1538 v -1.909559 h 7.8436 v 1.909559 z"
         id="path1123" />
    </g>
    <g
       id="g664"
       transform="matrix(2.2814295,0,0,-2.2814295,0.00270381,305.87132)">
      <g
         id="g666"
         clip-path="url(#clipPath670)">
        <g
           id="g672"
           transform="translate(803.6042,33.1828)">
          <path
             d="M 0,0 -1.977,15.283 -14.6,23.952 -30.57,47.903 c -1.818,3.007 -6.024,4.033 -8.251,4.033 h -74.79 V 0 c 0,-2.227 1.806,-4.033 4.033,-4.033 h 96.876 9.896 c 0.021,0 0.04,0.002 0.061,0.005 C -2.414,-3.974 0.441,-3.411 0,0"
             style="fill:#243447;fill-opacity:1;fill-rule:nonzero;stroke:none"
             id="path674" />
        </g>
        <g
           id="g676"
           transform="translate(768.067,29.1503)">
          <path
             d="m 0,0 c 0,-5.377 4.358,-9.734 9.734,-9.734 5.376,0 9.734,4.357 9.734,9.734 0,5.376 -4.358,9.733 -9.734,9.733 C 4.358,9.733 0,5.376 0,0"
             style="fill:#111b25;fill-opacity:1;fill-rule:nonzero;stroke:none"
             id="path678" />
        </g>
        <g
           id="g680"
           transform="translate(700.9955,29.1503)">
          <path
             d="m 0,0 c 0,-5.377 4.358,-9.734 9.734,-9.734 5.376,0 9.734,4.357 9.734,9.734 0,5.376 -4.358,9.733 -9.734,9.733 C 4.358,9.733 0,5.376 0,0"
             style="fill:#111b25;fill-opacity:1;fill-rule:nonzero;stroke:none"
             id="path682" />
        </g>
        <g
           id="g684"
           transform="translate(706.202,29.1502)">
          <path
             d="m 0,0 c 0,-2.5 2.027,-4.528 4.528,-4.528 2.5,0 4.527,2.028 4.527,4.528 0,2.5 -2.027,4.527 -4.527,4.527 C 2.027,4.527 0,2.5 0,0"
             style="fill:#ffffff;fill-opacity:1;fill-rule:nonzero;stroke:none"
             id="path686" />
        </g>
        <g
           id="g688"
           transform="translate(773.2733,29.1502)">
          <path
             d="m 0,0 c 0,-2.5 2.027,-4.528 4.528,-4.528 2.5,0 4.527,2.028 4.527,4.528 0,2.5 -2.027,4.527 -4.527,4.527 C 2.027,4.527 0,2.5 0,0"
             style="fill:#ffffff;fill-opacity:1;fill-rule:nonzero;stroke:none"
             id="path690" />
        </g>
        <path
           d="m 693.261,42.326 h -3.268 v -7.482 h 3.268 z"
           style="fill:#ef2e32;fill-opacity:1;fill-rule:nonzero;stroke:none"
           id="path692" />
        <g
           id="g694"
           transform="translate(782.2356,59.5834)">
          <path
             d="m 0,0 c 0,0 -10.348462,16.785861 -12.197663,19.33647 -1.849202,2.550609 -2.951075,2.23081 -21.166841,2.311118 L -33.308,0 Z"
             style="fill:#ffffff;fill-opacity:1;fill-rule:nonzero;stroke:none"
             id="path696" />
        </g>
        <g
           id="g698"
           transform="translate(703.8979,59.5834)">
          <path
             d="M 0,0 H 30.186"
             style="fill:none;stroke:#ffffff;stroke-width:1.036;stroke-linecap:butt;stroke-linejoin:miter;stroke-miterlimit:10;stroke-dasharray:none;stroke-opacity:1"
             id="path700" />
        </g>
      </g>
    </g>
    <g
       aria-label="Traun"
       transform="rotate(-9.4328028)"
       id="text3642"
       style="font-size:18.1227px;line-height:1.25;letter-spacing:0px;word-spacing:0px;fill:#2b3a4d;stroke-width:0.453067">
      <path
         d="m 146.06195,156.56805 v 1.68541 h -3.3527 v 10.90987 h -2.06598 v -10.90987 h -3.37083 v -1.68541 z"
         style="font-weight:500;font-family:Poppins;-inkscape-font-specification:'Poppins Medium'"
         id="path13698" />
      <path
         d="m 150.21204,160.62754 q 0.45306,-0.76115 1.19609,-1.17798 0.76116,-0.43494 1.79415,-0.43494 v 2.13848 h -0.52556 q -1.21422,0 -1.84851,0.61617 -0.61617,0.61617 -0.61617,2.13848 v 5.25558 h -2.06599 v -9.98561 h 2.06599 z"
         style="font-weight:500;font-family:Poppins;-inkscape-font-specification:'Poppins Medium'"
         id="path13700" />
      <path
         d="m 154.41648,164.12522 q 0,-1.50418 0.61617,-2.66404 0.6343,-1.15985 1.70354,-1.79414 1.08736,-0.65242 2.39219,-0.65242 1.17798,0 2.04787,0.47119 0.88801,0.45307 1.41357,1.14173 v -1.44982 h 2.08411 v 9.98561 h -2.08411 v -1.48606 q -0.52556,0.70678 -1.43169,1.17797 -0.90614,0.47119 -2.06599,0.47119 -1.28671,0 -2.35595,-0.65241 -1.06924,-0.67054 -1.70354,-1.84852 -0.61617,-1.1961 -0.61617,-2.70028 z m 8.17334,0.0362 q 0,-1.03299 -0.43494,-1.79414 -0.41683,-0.76116 -1.10549,-1.15986 -0.68866,-0.39869 -1.48606,-0.39869 -0.7974,0 -1.48606,0.39869 -0.68866,0.38058 -1.12361,1.14173 -0.41682,0.74304 -0.41682,1.77603 0,1.03299 0.41682,1.81227 0.43495,0.77928 1.12361,1.1961 0.70678,0.3987 1.48606,0.3987 0.7974,0 1.48606,-0.3987 0.68866,-0.3987 1.10549,-1.15986 0.43494,-0.77927 0.43494,-1.81227 z"
         style="font-weight:500;font-family:Poppins;-inkscape-font-specification:'Poppins Medium'"
         id="path13702" />
      <path
         d="m 176.43555,159.17772 v 9.98561 h -2.06599 v -1.17798 q -0.48931,0.61618 -1.28671,0.97863 -0.77927,0.34433 -1.66729,0.34433 -1.17797,0 -2.12035,-0.48931 -0.92426,-0.48931 -1.46794,-1.44982 -0.52556,-0.9605 -0.52556,-2.3197 v -5.87176 h 2.04787 v 5.56367 q 0,1.34108 0.67054,2.06599 0.67054,0.70678 1.83039,0.70678 1.15985,0 1.83039,-0.70678 0.68866,-0.72491 0.68866,-2.06599 v -5.56367 z"
         style="font-weight:500;font-family:Poppins;-inkscape-font-specification:'Poppins Medium'"
         id="path13704" />
      <path
         d="m 184.19204,159.01462 q 1.17797,0 2.10223,0.48931 0.94238,0.48931 1.46794,1.44982 0.52556,0.9605 0.52556,2.3197 v 5.88988 h -2.04787 v -5.58179 q 0,-1.34108 -0.67054,-2.04787 -0.67054,-0.7249 -1.83039,-0.7249 -1.15985,0 -1.84852,0.7249 -0.67054,0.70679 -0.67054,2.04787 v 5.58179 h -2.06598 v -9.98561 h 2.06598 v 1.14173 q 0.50744,-0.61617 1.28672,-0.9605 0.79739,-0.34433 1.68541,-0.34433 z"
         style="font-weight:500;font-family:Poppins;-inkscape-font-specification:'Poppins Medium'"
         id="path13706" />
    </g>
  </g>
</svg>
