<?xml version="1.0" standalone="no"?>
<!DOCTYPE svg PUBLIC "-//W3C//DTD SVG 20010904//EN"
 "http://www.w3.org/TR/2001/REC-SVG-20010904/DTD/svg10.dtd">
<svg version="1.0" xmlns="http://www.w3.org/2000/svg"
 width="780.000000pt" height="780.000000pt" viewBox="0 0 780.000000 780.000000"
 preserveAspectRatio="xMidYMid meet">
<metadata>
Created by potrace 1.11, written by Peter Selinger 2001-2013
</metadata>
<g transform="translate(0.000000,780.000000) scale(0.100000,-0.100000)"
fill="#000000" stroke="none">
<path d="M7070 7225 c0 -10 -332 -349 -476 -486 -196 -186 -401 -368 -563
-499 -24 -19 -48 -39 -55 -45 -6 -5 -38 -30 -71 -55 -33 -25 -66 -50 -75 -57
-31 -25 -129 -98 -147 -111 -10 -7 -70 -49 -132 -93 -422 -294 -910 -543
-1351 -689 -106 -34 -351 -104 -408 -115 -9 -1 -80 -17 -157 -33 -77 -17 -158
-33 -180 -37 -22 -3 -47 -7 -55 -10 -8 -2 -33 -6 -54 -10 -21 -3 -48 -7 -60
-10 -12 -2 -37 -7 -56 -10 -19 -2 -46 -7 -60 -9 -14 -3 -47 -7 -75 -11 -27 -3
-57 -8 -65 -10 -8 -2 -35 -7 -60 -10 -101 -12 -126 -15 -155 -19 -16 -3 -59
-8 -95 -11 -36 -3 -76 -8 -90 -10 -14 -2 -54 -6 -90 -10 -36 -3 -85 -8 -110
-10 -82 -8 -164 -15 -230 -20 -36 -3 -96 -7 -135 -10 -38 -3 -95 -7 -125 -10
-66 -6 -234 -17 -440 -30 -160 -10 -258 -17 -300 -20 -25 -2 -85 -7 -135 -10
-196 -13 -322 -22 -405 -30 -25 -3 -81 -7 -125 -11 -44 -3 -82 -8 -85 -10 -2
-3 -2 -40 0 -82 10 -219 7 -226 -107 -266 -43 -15 -138 -49 -210 -74 l-133
-47 0 -340 0 -340 223 -79 c122 -43 225 -84 229 -89 4 -6 4 -47 2 -91 -3 -45
-7 -103 -8 -130 -4 -58 6 -110 25 -129 28 -27 178 -48 434 -62 338 -18 428
-30 526 -71 l36 -16 -94 -189 c-116 -236 -170 -356 -241 -534 -54 -137 -135
-396 -146 -470 -4 -21 -8 -40 -10 -44 -2 -3 -7 -26 -10 -51 -3 -25 -8 -56 -11
-69 -12 -60 -19 -177 -19 -291 l0 -125 37 -61 c66 -110 198 -211 352 -267 54
-19 208 -66 240 -73 104 -20 371 -92 455 -121 91 -32 117 -37 195 -37 71 0
100 4 136 21 99 45 172 140 204 262 19 74 19 222 0 287 -7 23 -11 59 -10 80 2
22 6 84 10 139 11 162 11 170 36 360 12 97 12 98 39 260 25 156 24 149 45 255
9 47 18 96 21 110 2 14 7 36 10 50 3 14 8 36 11 50 4 22 15 76 29 135 3 11 7
31 10 45 2 14 16 75 30 136 l25 112 32 -3 c18 -2 84 -6 147 -10 136 -8 178
-11 245 -19 28 -3 73 -8 100 -11 104 -11 170 -20 290 -40 55 -8 134 -23 175
-31 41 -9 89 -18 105 -21 169 -28 641 -175 813 -254 35 -16 66 -29 69 -29 12
0 294 -145 383 -198 139 -81 466 -306 580 -399 41 -33 212 -172 249 -203 23
-19 55 -46 70 -60 15 -14 65 -59 111 -100 231 -206 497 -473 840 -843 l55 -59
7 34 c3 18 9 49 12 68 3 19 8 46 10 60 3 14 7 41 10 60 3 19 7 44 10 55 2 11
7 43 10 70 4 28 13 88 21 135 15 92 21 128 30 205 4 28 8 61 10 75 3 14 7 48
10 75 3 28 8 61 10 75 2 14 6 50 10 80 5 50 10 86 20 160 2 14 7 59 11 100 3
41 8 89 10 105 1 17 6 62 9 100 4 39 8 84 9 100 7 72 18 210 31 400 17 239 33
602 34 753 1 57 3 63 26 72 23 9 96 23 194 37 51 8 113 44 138 82 19 28 44 93
42 111 0 3 4 17 10 33 26 68 36 156 35 302 -1 136 -14 208 -55 300 -28 64
-119 155 -153 155 -33 0 -26 -2 -100 20 -77 22 -114 42 -140 77 -19 26 -20 40
-14 198 2 70 -25 575 -37 675 -2 19 -7 82 -11 140 -3 58 -8 113 -9 122 -2 9
-6 52 -10 95 -6 89 -14 172 -20 223 -2 19 -9 82 -15 140 -11 104 -17 163 -25
230 -3 19 -7 58 -10 85 -3 28 -8 61 -10 75 -3 14 -7 50 -10 80 -4 30 -8 66
-10 80 -1 14 -8 66 -14 115 -17 125 -21 154 -28 200 -4 22 -7 49 -9 60 -7 74
-28 203 -35 215 -5 8 -9 11 -9 5z"/>
</g>
</svg>
